<svg xmlns="http://www.w3.org/2000/svg" viewBox="0 0 13673 114" width="13673" height="114"><path d="M56 9.1c-12.726 0-24.943 5.061-33.941 14.059C13.061 32.157 8 44.374 8 57.1c0 12.726 5.061 24.943 14.059 33.941C31.057 100.039 43.274 105.1 56 105.1c12.726 0 24.943-5.061 33.941-14.059C98.939 82.043 104 69.826 104 57.1c0-12.726-5.061-24.943-14.059-33.941C80.943 14.161 68.726 9.1 56 9.1zM169 9.1c-12.726 0-24.943 5.061-33.941 14.059C126.061 32.157 121 44.374 121 57.1c0 12.726 5.061 24.943 14.059 33.941 8.998 8.998 21.215 14.059 33.941 14.059 12.726 0 24.943-5.061 33.941-14.059C211.939 82.043 217 69.826 217 57.1c0-12.726-5.061-24.943-14.059-33.941C193.943 14.161 181.726 9.1 169 9.1zM282 9.1c-12.726 0-24.943 5.061-33.941 14.059C239.061 32.157 234 44.374 234 57.1c0 12.726 5.061 24.943 14.059 33.941 8.998 8.998 21.215 14.059 33.941 14.059 12.726 0 24.943-5.061 33.941-14.059C324.939 82.043 330 69.826 330 57.1c0-12.726-5.061-24.943-14.059-33.941C306.943 14.161 294.726 9.1 282 9.1zM395 9.1c-12.726 0-24.943 5.061-33.941 14.059C352.061 32.157 347 44.374 347 57.1c0 12.726 5.061 24.943 14.059 33.941 8.998 8.998 21.215 14.059 33.941 14.059 12.726 0 24.943-5.061 33.941-14.059C437.939 82.043 443 69.826 443 57.1c0-12.726-5.061-24.943-14.059-33.941C419.943 14.161 407.726 9.1 395 9.1zM508 9.1c-12.726 0-24.943 5.061-33.941 14.059C465.061 32.157 460 44.374 460 57.1c0 12.726 5.061 24.943 14.059 33.941 8.998 8.998 21.215 14.059 33.941 14.059 12.726 0 24.943-5.061 33.941-14.059C550.939 82.043 556 69.826 556 57.1c0-12.726-5.061-24.943-14.059-33.941C532.943 14.161 520.726 9.1 508 9.1zM621 9.1c-12.726 0-24.943 5.061-33.941 14.059C578.061 32.157 573 44.374 573 57.1c0 12.726 5.061 24.943 14.059 33.941 8.998 8.998 21.215 14.059 33.941 14.059 12.726 0 24.943-5.061 33.941-14.059C663.939 82.043 669 69.826 669 57.1c0-12.726-5.061-24.943-14.059-33.941C645.943 14.161 633.726 9.1 621 9.1zM734 9.1c-12.726 0-24.943 5.061-33.941 14.059C691.061 32.157 686 44.374 686 57.1c0 12.726 5.061 24.943 14.059 33.941 8.998 8.998 21.215 14.059 33.941 14.059 12.726 0 24.943-5.061 33.941-14.059C776.939 82.043 782 69.826 782 57.1c0-12.726-5.061-24.943-14.059-33.941C758.943 14.161 746.726 9.1 734 9.1zM847 9.1c-12.726 0-24.943 5.061-33.941 14.059C804.061 32.157 799 44.374 799 57.1c0 12.726 5.061 24.943 14.059 33.941 8.998 8.998 21.215 14.059 33.941 14.059 12.726 0 24.943-5.061 33.941-14.059C889.939 82.043 895 69.826 895 57.1c0-12.726-5.061-24.943-14.059-33.941C871.943 14.161 859.726 9.1 847 9.1z" fill="none" stroke="#00aeef" stroke-width="4" stroke-dasharray="0,301.58838821113363" stroke-dashoffset="301.588388"/><path d="M960 7.3c-.477 0-.935.19-1.273.527-.337.338-.527.796-.527 1.273 0 .477.19.935.527 1.273.338.337.796.527 1.273.527.38 0 .751-.12 1.058-.344.307-.223.536-.538.654-.9.117-.361.117-.751 0-1.112-.118-.362-.347-.677-.654-.9-.307-.224-.678-.344-1.058-.344z" fill="#139dd9"/><path d="M960 9.1c-12.726 0-24.943 5.061-33.941 14.059C917.061 32.157 912 44.374 912 57.1c0 12.726 5.061 24.943 14.059 33.941 8.998 8.998 21.215 14.059 33.941 14.059 12.726 0 24.943-5.061 33.941-14.059C1002.939 82.043 1008 69.826 1008 57.1c0-12.726-5.061-24.943-14.059-33.941C984.943 14.161 972.726 9.1 960 9.1z" fill="none" stroke="#00aeef" stroke-width="4" stroke-dasharray="0,301.58838821113363" stroke-dashoffset="301.588388"/><path d="M1073 7.3c-.477 0-.935.19-1.273.527-.337.338-.527.796-.527 1.273 0 .477.19.935.527 1.273.338.337.796.527 1.273.527.38 0 .751-.12 1.058-.344.307-.223.536-.538.654-.9.117-.361.117-.751 0-1.112-.118-.362-.347-.677-.654-.9-.307-.224-.678-.344-1.058-.344z" fill="#139dd9"/><path d="M1073 9.1c-12.726 0-24.943 5.061-33.941 14.059C1030.061 32.157 1025 44.374 1025 57.1c0 12.726 5.061 24.943 14.059 33.941 8.998 8.998 21.215 14.059 33.941 14.059 12.726 0 24.943-5.061 33.941-14.059C1115.939 82.043 1121 69.826 1121 57.1c0-12.726-5.061-24.943-14.059-33.941C1097.943 14.161 1085.726 9.1 1073 9.1z" fill="none" stroke="#00aeef" stroke-width="4" stroke-dasharray="0,301.58838821113363" stroke-dashoffset="301.588388"/><path d="M1186 7.3c-.477 0-.935.19-1.273.527-.337.338-.527.796-.527 1.273 0 .477.19.935.527 1.273.338.337.796.527 1.273.527.38 0 .751-.12 1.058-.344.307-.223.536-.538.654-.9.117-.361.117-.751 0-1.112-.118-.362-.347-.677-.654-.9-.307-.224-.678-.344-1.058-.344z" fill="#139dd9"/><path d="M1186 9.1c-12.726 0-24.943 5.061-33.941 14.059C1143.061 32.157 1138 44.374 1138 57.1c0 12.726 5.061 24.943 14.059 33.941 8.998 8.998 21.215 14.059 33.941 14.059 12.726 0 24.943-5.061 33.941-14.059C1228.939 82.043 1234 69.826 1234 57.1c0-12.726-5.061-24.943-14.059-33.941C1210.943 14.161 1198.726 9.1 1186 9.1z" fill="none" stroke="#00aeef" stroke-width="4" stroke-dasharray="0,301.58838821113363" stroke-dashoffset="301.588388"/><path d="M1299 7.3c-.477 0-.935.19-1.273.527-.337.338-.527.796-.527 1.273 0 .477.19.935.527 1.273.338.337.796.527 1.273.527.38 0 .751-.12 1.058-.344.307-.223.536-.538.654-.9.117-.361.117-.751 0-1.112-.118-.362-.347-.677-.654-.9-.307-.224-.678-.344-1.058-.344z" fill="#139dd9"/><path d="M1299 9.1c-12.726 0-24.943 5.061-33.941 14.059C1256.061 32.157 1251 44.374 1251 57.1c0 12.726 5.061 24.943 14.059 33.941 8.998 8.998 21.215 14.059 33.941 14.059 12.726 0 24.943-5.061 33.941-14.059C1341.939 82.043 1347 69.826 1347 57.1c0-12.726-5.061-24.943-14.059-33.941C1323.943 14.161 1311.726 9.1 1299 9.1z" fill="none" stroke="#00aeef" stroke-width="4" stroke-dasharray="0,301.58838821113363" stroke-dashoffset="301.588388"/><path d="M1412 7.3c-.477 0-.935.19-1.273.527-.337.338-.527.796-.527 1.273 0 .477.19.935.527 1.273.338.337.796.527 1.273.527.38 0 .751-.12 1.058-.344.307-.223.536-.538.654-.9.117-.361.117-.751 0-1.112-.118-.362-.347-.677-.654-.9-.307-.224-.678-.344-1.058-.344z" fill="#139dd9"/><path d="M1412 9.1c-12.726 0-24.943 5.061-33.941 14.059C1369.061 32.157 1364 44.374 1364 57.1c0 12.726 5.061 24.943 14.059 33.941 8.998 8.998 21.215 14.059 33.941 14.059 12.726 0 24.943-5.061 33.941-14.059C1454.939 82.043 1460 69.826 1460 57.1c0-12.726-5.061-24.943-14.059-33.941C1436.943 14.161 1424.726 9.1 1412 9.1z" fill="none" stroke="#00aeef" stroke-width="4" stroke-dasharray="0,301.58838821113363" stroke-dashoffset="301.588388"/><path d="M1525 7.3c-.477 0-.935.19-1.273.527-.337.338-.527.796-.527 1.273 0 .477.19.935.527 1.273.338.337.796.527 1.273.527.38 0 .751-.12 1.058-.344.307-.223.536-.538.654-.9.117-.361.117-.751 0-1.112-.118-.362-.347-.677-.654-.9-.307-.224-.678-.344-1.058-.344z" fill="#139dd9"/><path d="M1525 9.1c-12.726 0-24.943 5.061-33.941 14.059C1482.061 32.157 1477 44.374 1477 57.1c0 12.726 5.061 24.943 14.059 33.941 8.998 8.998 21.215 14.059 33.941 14.059 12.726 0 24.943-5.061 33.941-14.059C1567.939 82.043 1573 69.826 1573 57.1c0-12.726-5.061-24.943-14.059-33.941C1549.943 14.161 1537.726 9.1 1525 9.1z" fill="none" stroke="#00aeef" stroke-width="4" stroke-dasharray="0,301.58838821113363" stroke-dashoffset="301.588388"/><path d="M1638 7.3c-.477 0-.935.19-1.273.527-.337.338-.527.796-.527 1.273 0 .477.19.935.527 1.273.338.337.796.527 1.273.527.38 0 .751-.12 1.058-.344.307-.223.536-.538.654-.9.117-.361.117-.751 0-1.112-.118-.362-.347-.677-.654-.9-.307-.224-.678-.344-1.058-.344z" fill="#139dd9"/><path d="M1638 9.1c-12.726 0-24.943 5.061-33.941 14.059C1595.061 32.157 1590 44.374 1590 57.1c0 12.726 5.061 24.943 14.059 33.941 8.998 8.998 21.215 14.059 33.941 14.059 12.726 0 24.943-5.061 33.941-14.059C1680.939 82.043 1686 69.826 1686 57.1c0-12.726-5.061-24.943-14.059-33.941C1662.943 14.161 1650.726 9.1 1638 9.1zM1751 9.1c-12.726 0-24.943 5.061-33.941 14.059C1708.061 32.157 1703 44.374 1703 57.1c0 12.726 5.061 24.943 14.059 33.941 8.998 8.998 21.215 14.059 33.941 14.059 12.726 0 24.943-5.061 33.941-14.059C1793.939 82.043 1799 69.826 1799 57.1c0-12.726-5.061-24.943-14.059-33.941C1775.943 14.161 1763.726 9.1 1751 9.1zM1864 9.1c-12.726 0-24.943 5.061-33.941 14.059C1821.061 32.157 1816 44.374 1816 57.1c0 12.726 5.061 24.943 14.059 33.941 8.998 8.998 21.215 14.059 33.941 14.059 12.726 0 24.943-5.061 33.941-14.059C1906.939 82.043 1912 69.826 1912 57.1c0-12.726-5.061-24.943-14.059-33.941C1888.943 14.161 1876.726 9.1 1864 9.1zM1977 9.1c-12.726 0-24.943 5.061-33.941 14.059C1934.061 32.157 1929 44.374 1929 57.1c0 12.726 5.061 24.943 14.059 33.941 8.998 8.998 21.215 14.059 33.941 14.059 12.726 0 24.943-5.061 33.941-14.059C2019.939 82.043 2025 69.826 2025 57.1c0-12.726-5.061-24.943-14.059-33.941C2001.943 14.161 1989.726 9.1 1977 9.1zM2090 9.1c-12.726 0-24.943 5.061-33.941 14.059C2047.061 32.157 2042 44.374 2042 57.1c0 12.726 5.061 24.943 14.059 33.941 8.998 8.998 21.215 14.059 33.941 14.059 12.726 0 24.943-5.061 33.941-14.059C2132.939 82.043 2138 69.826 2138 57.1c0-12.726-5.061-24.943-14.059-33.941C2114.943 14.161 2102.726 9.1 2090 9.1zM2203 9.1c-12.726 0-24.943 5.061-33.941 14.059C2160.061 32.157 2155 44.374 2155 57.1c0 12.726 5.061 24.943 14.059 33.941 8.998 8.998 21.215 14.059 33.941 14.059 12.726 0 24.943-5.061 33.941-14.059C2245.939 82.043 2251 69.826 2251 57.1c0-12.726-5.061-24.943-14.059-33.941C2227.943 14.161 2215.726 9.1 2203 9.1zM2316 9.1c-12.726 0-24.943 5.061-33.941 14.059C2273.061 32.157 2268 44.374 2268 57.1c0 12.726 5.061 24.943 14.059 33.941 8.998 8.998 21.215 14.059 33.941 14.059 12.726 0 24.943-5.061 33.941-14.059C2358.939 82.043 2364 69.826 2364 57.1c0-12.726-5.061-24.943-14.059-33.941C2340.943 14.161 2328.726 9.1 2316 9.1zM2429 9.1c-12.726 0-24.943 5.061-33.941 14.059C2386.061 32.157 2381 44.374 2381 57.1c0 12.726 5.061 24.943 14.059 33.941 8.998 8.998 21.215 14.059 33.941 14.059 12.726 0 24.943-5.061 33.941-14.059C2471.939 82.043 2477 69.826 2477 57.1c0-12.726-5.061-24.943-14.059-33.941C2453.943 14.161 2441.726 9.1 2429 9.1zM2542 9.1c-12.726 0-24.943 5.061-33.941 14.059C2499.061 32.157 2494 44.374 2494 57.1c0 12.726 5.061 24.943 14.059 33.941 8.998 8.998 21.215 14.059 33.941 14.059 12.726 0 24.943-5.061 33.941-14.059C2584.939 82.043 2590 69.826 2590 57.1c0-12.726-5.061-24.943-14.059-33.941C2566.943 14.161 2554.726 9.1 2542 9.1zM2655 9.1c-12.726 0-24.943 5.061-33.941 14.059C2612.061 32.157 2607 44.374 2607 57.1c0 12.726 5.061 24.943 14.059 33.941 8.998 8.998 21.215 14.059 33.941 14.059 12.726 0 24.943-5.061 33.941-14.059C2697.939 82.043 2703 69.826 2703 57.1c0-12.726-5.061-24.943-14.059-33.941C2679.943 14.161 2667.726 9.1 2655 9.1z" fill="none" stroke="#00aeef" stroke-width="4" stroke-dasharray="0,301.58838821113363" stroke-dashoffset="301.588388"/><path d="M2768 7.3c-.477 0-.935.19-1.273.527-.337.338-.527.796-.527 1.273 0 .477.19.935.527 1.273.338.337.796.527 1.273.527.38 0 .751-.12 1.058-.344.307-.223.536-.538.654-.9.117-.361.117-.751 0-1.112-.118-.362-.347-.677-.654-.9-.307-.224-.678-.344-1.058-.344z" fill="#139dd9"/><path d="M2768 9.1c-12.726 0-24.943 5.061-33.941 14.059C2725.061 32.157 2720 44.374 2720 57.1c0 12.726 5.061 24.943 14.059 33.941 8.998 8.998 21.215 14.059 33.941 14.059 12.726 0 24.943-5.061 33.941-14.059C2810.939 82.043 2816 69.826 2816 57.1c0-12.726-5.061-24.943-14.059-33.941C2792.943 14.161 2780.726 9.1 2768 9.1z" fill="none" stroke="#00aeef" stroke-width="4" stroke-dasharray="0,301.58838821113363" stroke-dashoffset="301.588388"/><path d="M2881 7.3c-.477 0-.935.19-1.273.527-.337.338-.527.796-.527 1.273 0 .477.19.935.527 1.273.338.337.796.527 1.273.527.38 0 .751-.12 1.058-.344.307-.223.536-.538.654-.9.117-.361.117-.751 0-1.112-.118-.362-.347-.677-.654-.9-.307-.224-.678-.344-1.058-.344z" fill="#139dd9"/><path d="M2881 9.1c-12.726 0-24.943 5.061-33.941 14.059C2838.061 32.157 2833 44.374 2833 57.1c0 12.726 5.061 24.943 14.059 33.941 8.998 8.998 21.215 14.059 33.941 14.059 12.726 0 24.943-5.061 33.941-14.059C2923.939 82.043 2929 69.826 2929 57.1c0-12.726-5.061-24.943-14.059-33.941C2905.943 14.161 2893.726 9.1 2881 9.1z" fill="none" stroke="#00aeef" stroke-width="4" stroke-dasharray="0,301.58838821113363" stroke-dashoffset="301.588388"/><path d="M2994 7.3c-.477 0-.935.19-1.273.527-.337.338-.527.796-.527 1.273 0 .477.19.935.527 1.273.338.337.796.527 1.273.527.38 0 .751-.12 1.058-.344.307-.223.536-.538.654-.9.117-.361.117-.751 0-1.112-.118-.362-.347-.677-.654-.9-.307-.224-.678-.344-1.058-.344z" fill="#139dd9"/><path d="M2994 9.1c-12.726 0-24.943 5.061-33.941 14.059C2951.061 32.157 2946 44.374 2946 57.1c0 12.726 5.061 24.943 14.059 33.941 8.998 8.998 21.215 14.059 33.941 14.059 12.726 0 24.943-5.061 33.941-14.059C3036.939 82.043 3042 69.826 3042 57.1c0-12.726-5.061-24.943-14.059-33.941C3018.943 14.161 3006.726 9.1 2994 9.1z" fill="none" stroke="#00aeef" stroke-width="4" stroke-dasharray="0,301.58838821113363" stroke-dashoffset="301.588388"/><path d="M3107 7.3c-.477 0-.935.19-1.273.527-.337.338-.527.796-.527 1.273 0 .477.19.935.527 1.273.338.337.796.527 1.273.527.38 0 .751-.12 1.058-.344.307-.223.536-.538.654-.9.117-.361.117-.751 0-1.112-.118-.362-.347-.677-.654-.9-.307-.224-.678-.344-1.058-.344z" fill="#139dd9"/><path d="M3107 9.1c-12.726 0-24.943 5.061-33.941 14.059C3064.061 32.157 3059 44.374 3059 57.1c0 12.726 5.061 24.943 14.059 33.941 8.998 8.998 21.215 14.059 33.941 14.059 12.726 0 24.943-5.061 33.941-14.059C3149.939 82.043 3155 69.826 3155 57.1c0-12.726-5.061-24.943-14.059-33.941C3131.943 14.161 3119.726 9.1 3107 9.1z" fill="none" stroke="#00aeef" stroke-width="4" stroke-dasharray="0,301.58838821113363" stroke-dashoffset="301.588388"/><path d="M3220 7.3c-.477 0-.935.19-1.273.527-.337.338-.527.796-.527 1.273 0 .477.19.935.527 1.273.338.337.796.527 1.273.527.38 0 .751-.12 1.058-.344.307-.223.536-.538.654-.9.117-.361.117-.751 0-1.112-.118-.362-.347-.677-.654-.9-.307-.224-.678-.344-1.058-.344z" fill="#139dd9"/><path d="M3220 9.1c-12.726 0-24.943 5.061-33.941 14.059C3177.061 32.157 3172 44.374 3172 57.1c0 12.726 5.061 24.943 14.059 33.941 8.998 8.998 21.215 14.059 33.941 14.059 12.726 0 24.943-5.061 33.941-14.059C3262.939 82.043 3268 69.826 3268 57.1c0-12.726-5.061-24.943-14.059-33.941C3244.943 14.161 3232.726 9.1 3220 9.1z" fill="none" stroke="#00aeef" stroke-width="4" stroke-dasharray="0.6131304860033504,300.9752577251303" stroke-dashoffset="301.588388"/><path d="M3333 7.3c-.477 0-.935.19-1.273.527-.337.338-.527.796-.527 1.273 0 .477.19.935.527 1.273.338.337.796.527 1.273.527.38 0 .751-.12 1.058-.344.307-.223.536-.538.654-.9.117-.361.117-.751 0-1.112-.118-.362-.347-.677-.654-.9-.307-.224-.678-.344-1.058-.344z" fill="#139dd9"/><path d="M3333 9.1c-12.726 0-24.943 5.061-33.941 14.059C3290.061 32.157 3285 44.374 3285 57.1c0 12.726 5.061 24.943 14.059 33.941 8.998 8.998 21.215 14.059 33.941 14.059 12.726 0 24.943-5.061 33.941-14.059C3375.939 82.043 3381 69.826 3381 57.1c0-12.726-5.061-24.943-14.059-33.941C3357.943 14.161 3345.726 9.1 3333 9.1z" fill="none" stroke="#00aeef" stroke-width="4" stroke-dasharray="2.616698400834686,298.9716898102989" stroke-dashoffset="301.588388"/><path d="M3446 7.3c-.477 0-.935.19-1.273.527-.337.338-.527.796-.527 1.273 0 .477.19.935.527 1.273.338.337.796.527 1.273.527.38 0 .751-.12 1.058-.344.307-.223.536-.538.654-.9.117-.361.117-.751 0-1.112-.118-.362-.347-.677-.654-.9-.307-.224-.678-.344-1.058-.344z" fill="#139dd9"/><path d="M3446 9.1c-12.726 0-24.943 5.061-33.941 14.059C3403.061 32.157 3398 44.374 3398 57.1c0 12.726 5.061 24.943 14.059 33.941 8.998 8.998 21.215 14.059 33.941 14.059 12.726 0 24.943-5.061 33.941-14.059C3488.939 82.043 3494 69.826 3494 57.1c0-12.726-5.061-24.943-14.059-33.941C3470.943 14.161 3458.726 9.1 3446 9.1z" fill="none" stroke="#00aeef" stroke-width="4" stroke-dasharray="6.308634372303242,295.2797538388304" stroke-dashoffset="301.588388"/><path d="M3559 7.3c-.477 0-.935.19-1.273.527-.337.338-.527.796-.527 1.273 0 .477.19.935.527 1.273.338.337.796.527 1.273.527.38 0 .751-.12 1.058-.344.307-.223.536-.538.654-.9.117-.361.117-.751 0-1.112-.118-.362-.347-.677-.654-.9-.307-.224-.678-.344-1.058-.344z" fill="#139dd9"/><path d="M3559 9.1c-12.726 0-24.943 5.061-33.941 14.059C3516.061 32.157 3511 44.374 3511 57.1c0 12.726 5.061 24.943 14.059 33.941 8.998 8.998 21.215 14.059 33.941 14.059 12.726 0 24.943-5.061 33.941-14.059C3601.939 82.043 3607 69.826 3607 57.1c0-12.726-5.061-24.943-14.059-33.941C3583.943 14.161 3571.726 9.1 3559 9.1z" fill="none" stroke="#00aeef" stroke-width="4" stroke-dasharray="12.070362351984473,289.5180258591492" stroke-dashoffset="301.588388"/><path d="M3672 7.3c-.477 0-.935.19-1.273.527-.337.338-.527.796-.527 1.273 0 .477.19.935.527 1.273.338.337.796.527 1.273.527.38 0 .751-.12 1.058-.344.307-.223.536-.538.654-.9.117-.361.117-.751 0-1.112-.118-.362-.347-.677-.654-.9-.307-.224-.678-.344-1.058-.344z" fill="#139dd9"/><path d="M3672 9.1c-12.726 0-24.943 5.061-33.941 14.059C3629.061 32.157 3624 44.374 3624 57.1c0 12.726 5.061 24.943 14.059 33.941 8.998 8.998 21.215 14.059 33.941 14.059 12.726 0 24.943-5.061 33.941-14.059C3714.939 82.043 3720 69.826 3720 57.1c0-12.726-5.061-24.943-14.059-33.941C3696.943 14.161 3684.726 9.1 3672 9.1z" fill="none" stroke="#00aeef" stroke-width="4" stroke-dasharray="20.380847194709172,281.20754101642444" stroke-dashoffset="301.588388"/><path d="M3785 7.3c-.477 0-.935.19-1.273.527-.337.338-.527.796-.527 1.273 0 .477.19.935.527 1.273.338.337.796.527 1.273.527.38 0 .751-.12 1.058-.344.307-.223.536-.538.654-.9.117-.361.117-.751 0-1.112-.118-.362-.347-.677-.654-.9-.307-.224-.678-.344-1.058-.344z" fill="#139dd9"/><path d="M3785 9.1c-12.726 0-24.943 5.061-33.941 14.059C3742.061 32.157 3737 44.374 3737 57.1c0 12.726 5.061 24.943 14.059 33.941 8.998 8.998 21.215 14.059 33.941 14.059 12.726 0 24.943-5.061 33.941-14.059C3827.939 82.043 3833 69.826 3833 57.1c0-12.726-5.061-24.943-14.059-33.941C3809.943 14.161 3797.726 9.1 3785 9.1z" fill="none" stroke="#00aeef" stroke-width="4" stroke-dasharray="31.80594680890116,269.78244140223245" stroke-dashoffset="301.588388"/><path d="M3898 7.3c-.477 0-.935.19-1.273.527-.337.338-.527.796-.527 1.273 0 .477.19.935.527 1.273.338.337.796.527 1.273.527.38 0 .751-.12 1.058-.344.307-.223.536-.538.654-.9.117-.361.117-.751 0-1.112-.118-.362-.347-.677-.654-.9-.307-.224-.678-.344-1.058-.344z" fill="#139dd9"/><path d="M3898 9.1c-12.726 0-24.943 5.061-33.941 14.059C3855.061 32.157 3850 44.374 3850 57.1c0 12.726 5.061 24.943 14.059 33.941 8.998 8.998 21.215 14.059 33.941 14.059 12.726 0 24.943-5.061 33.941-14.059C3940.939 82.043 3946 69.826 3946 57.1c0-12.726-5.061-24.943-14.059-33.941C3922.943 14.161 3910.726 9.1 3898 9.1z" fill="none" stroke="#00aeef" stroke-width="4" stroke-dasharray="46.90930486466469,254.67908334646893" stroke-dashoffset="301.588388"/><path d="M4011 7.3c-.477 0-.935.19-1.273.527-.337.338-.527.796-.527 1.273 0 .477.19.935.527 1.273.338.337.796.527 1.273.527.38 0 .751-.12 1.058-.344.307-.223.536-.538.654-.9.117-.361.117-.751 0-1.112-.118-.362-.347-.677-.654-.9-.307-.224-.678-.344-1.058-.344z" fill="#139dd9"/><path d="M4011 9.1c-12.726 0-24.943 5.061-33.941 14.059C3968.061 32.157 3963 44.374 3963 57.1c0 12.726 5.061 24.943 14.059 33.941 8.998 8.998 21.215 14.059 33.941 14.059 12.726 0 24.943-5.061 33.941-14.059C4053.939 82.043 4059 69.826 4059 57.1c0-12.726-5.061-24.943-14.059-33.941C4035.943 14.161 4023.726 9.1 4011 9.1z" fill="none" stroke="#00aeef" stroke-width="4" stroke-dasharray="65.9888595550552,235.59952865607843" stroke-dashoffset="301.588388"/><path d="M4124 7.3c-.477 0-.935.19-1.273.527-.337.338-.527.796-.527 1.273 0 .477.19.935.527 1.273.338.337.796.527 1.273.527.38 0 .751-.12 1.058-.344.307-.223.536-.538.654-.9.117-.361.117-.751 0-1.112-.118-.362-.347-.677-.654-.9-.307-.224-.678-.344-1.058-.344z" fill="#139dd9"/><path d="M4124 9.1c-12.726 0-24.943 5.061-33.941 14.059C4081.061 32.157 4076 44.374 4076 57.1c0 12.726 5.061 24.943 14.059 33.941 8.998 8.998 21.215 14.059 33.941 14.059 12.726 0 24.943-5.061 33.941-14.059C4166.939 82.043 4172 69.826 4172 57.1c0-12.726-5.061-24.943-14.059-33.941C4148.943 14.161 4136.726 9.1 4124 9.1z" fill="none" stroke="#00aeef" stroke-width="4" stroke-dasharray="88.60717445106224,212.98121376007143" stroke-dashoffset="301.588388"/><path d="M4237 7.3c-.477 0-.935.19-1.273.527-.337.338-.527.796-.527 1.273 0 .477.19.935.527 1.273.338.337.796.527 1.273.527.38 0 .751-.12 1.058-.344.307-.223.536-.538.654-.9.117-.361.117-.751 0-1.112-.118-.362-.347-.677-.654-.9-.307-.224-.678-.344-1.058-.344z" fill="#139dd9"/><path d="M4237 9.1c-12.726 0-24.943 5.061-33.941 14.059C4194.061 32.157 4189 44.374 4189 57.1c0 12.726 5.061 24.943 14.059 33.941 8.998 8.998 21.215 14.059 33.941 14.059 12.726 0 24.943-5.061 33.941-14.059C4279.939 82.043 4285 69.826 4285 57.1c0-12.726-5.061-24.943-14.059-33.941C4261.943 14.161 4249.726 9.1 4237 9.1z" fill="none" stroke="#00aeef" stroke-width="4" stroke-dasharray="113.27116546253819,188.31722274859544" stroke-dashoffset="301.588388"/><path d="M4350 7.3c-.477 0-.935.19-1.273.527-.337.338-.527.796-.527 1.273 0 .477.19.935.527 1.273.338.337.796.527 1.273.527.38 0 .751-.12 1.058-.344.307-.223.536-.538.654-.9.117-.361.117-.751 0-1.112-.118-.362-.347-.677-.654-.9-.307-.224-.678-.344-1.058-.344z" fill="#139dd9"/><path d="M4350 9.1c-12.726 0-24.943 5.061-33.941 14.059C4307.061 32.157 4302 44.374 4302 57.1c0 12.726 5.061 24.943 14.059 33.941 8.998 8.998 21.215 14.059 33.941 14.059 12.726 0 24.943-5.061 33.941-14.059C4392.939 82.043 4398 69.826 4398 57.1c0-12.726-5.061-24.943-14.059-33.941C4374.943 14.161 4362.726 9.1 4350 9.1z" fill="none" stroke="#00aeef" stroke-width="4" stroke-dasharray="137.90181521810678,163.68657299302686" stroke-dashoffset="301.588388"/><path d="M4463 7.3c-.477 0-.935.19-1.273.527-.337.338-.527.796-.527 1.273 0 .477.19.935.527 1.273.338.337.796.527 1.273.527.38 0 .751-.12 1.058-.344.307-.223.536-.538.654-.9.117-.361.117-.751 0-1.112-.118-.362-.347-.677-.654-.9-.307-.224-.678-.344-1.058-.344z" fill="#139dd9"/><path d="M4463 9.1c-12.726 0-24.943 5.061-33.941 14.059C4420.061 32.157 4415 44.374 4415 57.1c0 12.726 5.061 24.943 14.059 33.941 8.998 8.998 21.215 14.059 33.941 14.059 12.726 0 24.943-5.061 33.941-14.059C4505.939 82.043 4511 69.826 4511 57.1c0-12.726-5.061-24.943-14.059-33.941C4487.943 14.161 4475.726 9.1 4463 9.1z" fill="none" stroke="#00aeef" stroke-width="4" stroke-dasharray="160.83275189786715,140.75563631326648" stroke-dashoffset="301.588388"/><path d="M4576 7.3c-.477 0-.935.19-1.273.527-.337.338-.527.796-.527 1.273 0 .477.19.935.527 1.273.338.337.796.527 1.273.527.38 0 .751-.12 1.058-.344.307-.223.536-.538.654-.9.117-.361.117-.751 0-1.112-.118-.362-.347-.677-.654-.9-.307-.224-.678-.344-1.058-.344z" fill="#139dd9"/><path d="M4576 9.1c-12.726 0-24.943 5.061-33.941 14.059C4533.061 32.157 4528 44.374 4528 57.1c0 12.726 5.061 24.943 14.059 33.941 8.998 8.998 21.215 14.059 33.941 14.059 12.726 0 24.943-5.061 33.941-14.059C4618.939 82.043 4624 69.826 4624 57.1c0-12.726-5.061-24.943-14.059-33.941C4600.943 14.161 4588.726 9.1 4576 9.1z" fill="none" stroke="#00aeef" stroke-width="4" stroke-dasharray="181.2794006006524,120.30898761048125" stroke-dashoffset="301.588388"/><path d="M4689 7.3c-.477 0-.935.19-1.273.527-.337.338-.527.796-.527 1.273 0 .477.19.935.527 1.273.338.337.796.527 1.273.527.38 0 .751-.12 1.058-.344.307-.223.536-.538.654-.9.117-.361.117-.751 0-1.112-.118-.362-.347-.677-.654-.9-.307-.224-.678-.344-1.058-.344z" fill="#139dd9"/><path d="M4689 9.1c-12.726 0-24.943 5.061-33.941 14.059C4646.061 32.157 4641 44.374 4641 57.1c0 12.726 5.061 24.943 14.059 33.941 8.998 8.998 21.215 14.059 33.941 14.059 12.726 0 24.943-5.061 33.941-14.059C4731.939 82.043 4737 69.826 4737 57.1c0-12.726-5.061-24.943-14.059-33.941C4713.943 14.161 4701.726 9.1 4689 9.1z" fill="none" stroke="#00aeef" stroke-width="4" stroke-dasharray="199.12667551306177,102.46171269807186" stroke-dashoffset="301.588388"/><path d="M4802 7.3c-.477 0-.935.19-1.273.527-.337.338-.527.796-.527 1.273 0 .477.19.935.527 1.273.338.337.796.527 1.273.527.38 0 .751-.12 1.058-.344.307-.223.536-.538.654-.9.117-.361.117-.751 0-1.112-.118-.362-.347-.677-.654-.9-.307-.224-.678-.344-1.058-.344z" fill="#139dd9"/><path d="M4802 9.1c-12.726 0-24.943 5.061-33.941 14.059C4759.061 32.157 4754 44.374 4754 57.1c0 12.726 5.061 24.943 14.059 33.941 8.998 8.998 21.215 14.059 33.941 14.059 12.726 0 24.943-5.061 33.941-14.059C4844.939 82.043 4850 69.826 4850 57.1c0-12.726-5.061-24.943-14.059-33.941C4826.943 14.161 4814.726 9.1 4802 9.1z" fill="none" stroke="#00aeef" stroke-width="4" stroke-dasharray="214.57574126239007,87.01264694874357" stroke-dashoffset="301.588388"/><path d="M4915 7.3c-.477 0-.935.19-1.273.527-.337.338-.527.796-.527 1.273 0 .477.19.935.527 1.273.338.337.796.527 1.273.527.38 0 .751-.12 1.058-.344.307-.223.536-.538.654-.9.117-.361.117-.751 0-1.112-.118-.362-.347-.677-.654-.9-.307-.224-.678-.344-1.058-.344z" fill="#139dd9"/><path d="M4915 9.1c-12.726 0-24.943 5.061-33.941 14.059C4872.061 32.157 4867 44.374 4867 57.1c0 12.726 5.061 24.943 14.059 33.941 8.998 8.998 21.215 14.059 33.941 14.059 12.726 0 24.943-5.061 33.941-14.059C4957.939 82.043 4963 69.826 4963 57.1c0-12.726-5.061-24.943-14.059-33.941C4939.943 14.161 4927.726 9.1 4915 9.1z" fill="none" stroke="#00aeef" stroke-width="4" stroke-dasharray="227.92245038935638,73.66593782177726" stroke-dashoffset="301.588388"/><path d="M5028 7.3c-.477 0-.935.19-1.273.527-.337.338-.527.796-.527 1.273 0 .477.19.935.527 1.273.338.337.796.527 1.273.527.38 0 .751-.12 1.058-.344.307-.223.536-.538.654-.9.117-.361.117-.751 0-1.112-.118-.362-.347-.677-.654-.9-.307-.224-.678-.344-1.058-.344z" fill="#139dd9"/><path d="M5028 9.1c-12.726 0-24.943 5.061-33.941 14.059C4985.061 32.157 4980 44.374 4980 57.1c0 12.726 5.061 24.943 14.059 33.941 8.998 8.998 21.215 14.059 33.941 14.059 12.726 0 24.943-5.061 33.941-14.059C5070.939 82.043 5076 69.826 5076 57.1c0-12.726-5.061-24.943-14.059-33.941C5052.943 14.161 5040.726 9.1 5028 9.1z" fill="none" stroke="#00aeef" stroke-width="4" stroke-dasharray="239.46001634425252,62.1283718668811" stroke-dashoffset="301.588388"/><path d="M5141 7.3c-.477 0-.935.19-1.273.527-.337.338-.527.796-.527 1.273 0 .477.19.935.527 1.273.338.337.796.527 1.273.527.38 0 .751-.12 1.058-.344.307-.223.536-.538.654-.9.117-.361.117-.751 0-1.112-.118-.362-.347-.677-.654-.9-.307-.224-.678-.344-1.058-.344z" fill="#139dd9"/><path d="M5141 9.1c-12.726 0-24.943 5.061-33.941 14.059C5098.061 32.157 5093 44.374 5093 57.1c0 12.726 5.061 24.943 14.059 33.941 8.998 8.998 21.215 14.059 33.941 14.059 12.726 0 24.943-5.061 33.941-14.059C5183.939 82.043 5189 69.826 5189 57.1c0-12.726-5.061-24.943-14.059-33.941C5165.943 14.161 5153.726 9.1 5141 9.1z" fill="none" stroke="#00aeef" stroke-width="4" stroke-dasharray="249.44643683102657,52.141951380107066" stroke-dashoffset="301.588388"/><path d="M5254 7.3c-.477 0-.935.19-1.273.527-.337.338-.527.796-.527 1.273 0 .477.19.935.527 1.273.338.337.796.527 1.273.527.38 0 .751-.12 1.058-.344.307-.223.536-.538.654-.9.117-.361.117-.751 0-1.112-.118-.362-.347-.677-.654-.9-.307-.224-.678-.344-1.058-.344z" fill="#139dd9"/><path d="M5254 9.1c-12.726 0-24.943 5.061-33.941 14.059C5211.061 32.157 5206 44.374 5206 57.1c0 12.726 5.061 24.943 14.059 33.941 8.998 8.998 21.215 14.059 33.941 14.059 12.726 0 24.943-5.061 33.941-14.059C5296.939 82.043 5302 69.826 5302 57.1c0-12.726-5.061-24.943-14.059-33.941C5278.943 14.161 5266.726 9.1 5254 9.1z" fill="none" stroke="#00aeef" stroke-width="4" stroke-dasharray="258.09871622228815,43.48967198884546" stroke-dashoffset="301.588388"/><path d="M5367 7.3c-.477 0-.935.19-1.273.527-.337.338-.527.796-.527 1.273 0 .477.19.935.527 1.273.338.337.796.527 1.273.527.38 0 .751-.12 1.058-.344.307-.223.536-.538.654-.9.117-.361.117-.751 0-1.112-.118-.362-.347-.677-.654-.9-.307-.224-.678-.344-1.058-.344z" fill="#139dd9"/><path d="M5367 9.1c-12.726 0-24.943 5.061-33.941 14.059C5324.061 32.157 5319 44.374 5319 57.1c0 12.726 5.061 24.943 14.059 33.941 8.998 8.998 21.215 14.059 33.941 14.059 12.726 0 24.943-5.061 33.941-14.059C5409.939 82.043 5415 69.826 5415 57.1c0-12.726-5.061-24.943-14.059-33.941C5391.943 14.161 5379.726 9.1 5367 9.1z" fill="none" stroke="#00aeef" stroke-width="4" stroke-dasharray="265.5964467370941,35.991941474039564" stroke-dashoffset="301.588388"/><path d="M5480 7.3c-.477 0-.935.19-1.273.527-.337.338-.527.796-.527 1.273 0 .477.19.935.527 1.273.338.337.796.527 1.273.527.38 0 .751-.12 1.058-.344.307-.223.536-.538.654-.9.117-.361.117-.751 0-1.112-.118-.362-.347-.677-.654-.9-.307-.224-.678-.344-1.058-.344z" fill="#139dd9"/><path d="M5480 9.1c-12.726 0-24.943 5.061-33.941 14.059C5437.061 32.157 5432 44.374 5432 57.1c0 12.726 5.061 24.943 14.059 33.941 8.998 8.998 21.215 14.059 33.941 14.059 12.726 0 24.943-5.061 33.941-14.059C5522.939 82.043 5528 69.826 5528 57.1c0-12.726-5.061-24.943-14.059-33.941C5504.943 14.161 5492.726 9.1 5480 9.1z" fill="none" stroke="#00aeef" stroke-width="4" stroke-dasharray="272.0877792539041,29.500608957229534" stroke-dashoffset="301.588388"/><path d="M5593 7.3c-.477 0-.935.19-1.273.527-.337.338-.527.796-.527 1.273 0 .477.19.935.527 1.273.338.337.796.527 1.273.527.38 0 .751-.12 1.058-.344.307-.223.536-.538.654-.9.117-.361.117-.751 0-1.112-.118-.362-.347-.677-.654-.9-.307-.224-.678-.344-1.058-.344z" fill="#139dd9"/><path d="M5593 9.1c-12.726 0-24.943 5.061-33.941 14.059C5550.061 32.157 5545 44.374 5545 57.1c0 12.726 5.061 24.943 14.059 33.941 8.998 8.998 21.215 14.059 33.941 14.059 12.726 0 24.943-5.061 33.941-14.059C5635.939 82.043 5641 69.826 5641 57.1c0-12.726-5.061-24.943-14.059-33.941C5617.943 14.161 5605.726 9.1 5593 9.1z" fill="none" stroke="#00aeef" stroke-width="4" stroke-dasharray="277.695284428302,23.893103782831663" stroke-dashoffset="301.588388"/><path d="M5706 7.3c-.477 0-.935.19-1.273.527-.337.338-.527.796-.527 1.273 0 .477.19.935.527 1.273.338.337.796.527 1.273.527.38 0 .751-.12 1.058-.344.307-.223.536-.538.654-.9.117-.361.117-.751 0-1.112-.118-.362-.347-.677-.654-.9-.307-.224-.678-.344-1.058-.344z" fill="#139dd9"/><path d="M5706 9.1c-12.726 0-24.943 5.061-33.941 14.059C5663.061 32.157 5658 44.374 5658 57.1c0 12.726 5.061 24.943 14.059 33.941 8.998 8.998 21.215 14.059 33.941 14.059 12.726 0 24.943-5.061 33.941-14.059C5748.939 82.043 5754 69.826 5754 57.1c0-12.726-5.061-24.943-14.059-33.941C5730.943 14.161 5718.726 9.1 5706 9.1z" fill="none" stroke="#00aeef" stroke-width="4" stroke-dasharray="282.52096139165803,19.06742681947562" stroke-dashoffset="301.588388"/><path d="M5819 7.3c-.477 0-.935.19-1.273.527-.337.338-.527.796-.527 1.273 0 .477.19.935.527 1.273.338.337.796.527 1.273.527.38 0 .751-.12 1.058-.344.307-.223.536-.538.654-.9.117-.361.117-.751 0-1.112-.118-.362-.347-.677-.654-.9-.307-.224-.678-.344-1.058-.344z" fill="#139dd9"/><path d="M5819 9.1c-12.726 0-24.943 5.061-33.941 14.059C5776.061 32.157 5771 44.374 5771 57.1c0 12.726 5.061 24.943 14.059 33.941 8.998 8.998 21.215 14.059 33.941 14.059 12.726 0 24.943-5.061 33.941-14.059C5861.939 82.043 5867 69.826 5867 57.1c0-12.726-5.061-24.943-14.059-33.941C5843.943 14.161 5831.726 9.1 5819 9.1z" fill="none" stroke="#00aeef" stroke-width="4" stroke-dasharray="286.65029498657464,14.938093224559024" stroke-dashoffset="301.588388"/><path d="M5932 7.3c-.477 0-.935.19-1.273.527-.337.338-.527.796-.527 1.273 0 .477.19.935.527 1.273.338.337.796.527 1.273.527.38 0 .751-.12 1.058-.344.307-.223.536-.538.654-.9.117-.361.117-.751 0-1.112-.118-.362-.347-.677-.654-.9-.307-.224-.678-.344-1.058-.344z" fill="#139dd9"/><path d="M5932 9.1c-12.726 0-24.943 5.061-33.941 14.059C5889.061 32.157 5884 44.374 5884 57.1c0 12.726 5.061 24.943 14.059 33.941 8.998 8.998 21.215 14.059 33.941 14.059 12.726 0 24.943-5.061 33.941-14.059C5974.939 82.043 5980 69.826 5980 57.1c0-12.726-5.061-24.943-14.059-33.941C5956.943 14.161 5944.726 9.1 5932 9.1z" fill="none" stroke="#00aeef" stroke-width="4" stroke-dasharray="290.15547106797806,11.432917143155569" stroke-dashoffset="301.588388"/><path d="M6045 7.3c-.477 0-.935.19-1.273.527-.337.338-.527.796-.527 1.273 0 .477.19.935.527 1.273.338.337.796.527 1.273.527.38 0 .751-.12 1.058-.344.307-.223.536-.538.654-.9.117-.361.117-.751 0-1.112-.118-.362-.347-.677-.654-.9-.307-.224-.678-.344-1.058-.344z" fill="#139dd9"/><path d="M6045 9.1c-12.726 0-24.943 5.061-33.941 14.059C6002.061 32.157 5997 44.374 5997 57.1c0 12.726 5.061 24.943 14.059 33.941 8.998 8.998 21.215 14.059 33.941 14.059 12.726 0 24.943-5.061 33.941-14.059C6087.939 82.043 6093 69.826 6093 57.1c0-12.726-5.061-24.943-14.059-33.941C6069.943 14.161 6057.726 9.1 6045 9.1z" fill="none" stroke="#00aeef" stroke-width="4" stroke-dasharray="293.0979054689631,8.49048274217051" stroke-dashoffset="301.588388"/><path d="M6158 7.3c-.477 0-.935.19-1.273.527-.337.338-.527.796-.527 1.273 0 .477.19.935.527 1.273.338.337.796.527 1.273.527.38 0 .751-.12 1.058-.344.307-.223.536-.538.654-.9.117-.361.117-.751 0-1.112-.118-.362-.347-.677-.654-.9-.307-.224-.678-.344-1.058-.344z" fill="#139dd9"/><path d="M6158 9.1c-12.726 0-24.943 5.061-33.941 14.059C6115.061 32.157 6110 44.374 6110 57.1c0 12.726 5.061 24.943 14.059 33.941 8.998 8.998 21.215 14.059 33.941 14.059 12.726 0 24.943-5.061 33.941-14.059C6200.939 82.043 6206 69.826 6206 57.1c0-12.726-5.061-24.943-14.059-33.941C6182.943 14.161 6170.726 9.1 6158 9.1z" fill="none" stroke="#00aeef" stroke-width="4" stroke-dasharray="295.530232523522,6.058155687611634" stroke-dashoffset="301.588388"/><path d="M6271 7.3c-.477 0-.935.19-1.273.527-.337.338-.527.796-.527 1.273 0 .477.19.935.527 1.273.338.337.796.527 1.273.527.38 0 .751-.12 1.058-.344.307-.223.536-.538.654-.9.117-.361.117-.751 0-1.112-.118-.362-.347-.677-.654-.9-.307-.224-.678-.344-1.058-.344z" fill="#139dd9"/><path d="M6271 9.1c-12.726 0-24.943 5.061-33.941 14.059C6228.061 32.157 6223 44.374 6223 57.1c0 12.726 5.061 24.943 14.059 33.941 8.998 8.998 21.215 14.059 33.941 14.059 12.726 0 24.943-5.061 33.941-14.059C6313.939 82.043 6319 69.826 6319 57.1c0-12.726-5.061-24.943-14.059-33.941C6295.943 14.161 6283.726 9.1 6271 9.1z" fill="none" stroke="#00aeef" stroke-width="4" stroke-dasharray="297.49787410679494,4.0905141043386894" stroke-dashoffset="301.588388"/><path d="M6384 7.3c-.477 0-.935.19-1.273.527-.337.338-.527.796-.527 1.273 0 .477.19.935.527 1.273.338.337.796.527 1.273.527.38 0 .751-.12 1.058-.344.307-.223.536-.538.654-.9.117-.361.117-.751 0-1.112-.118-.362-.347-.677-.654-.9-.307-.224-.678-.344-1.058-.344z" fill="#139dd9"/><path d="M6384 9.1c-12.726 0-24.943 5.061-33.941 14.059C6341.061 32.157 6336 44.374 6336 57.1c0 12.726 5.061 24.943 14.059 33.941 8.998 8.998 21.215 14.059 33.941 14.059 12.726 0 24.943-5.061 33.941-14.059C6426.939 82.043 6432 69.826 6432 57.1c0-12.726-5.061-24.943-14.059-33.941C6408.943 14.161 6396.726 9.1 6384 9.1z" fill="none" stroke="#00aeef" stroke-width="4" stroke-dasharray="299.0402845128973,2.5481036982363556" stroke-dashoffset="301.588388"/><path d="M6497 7.3c-.477 0-.935.19-1.273.527-.337.338-.527.796-.527 1.273 0 .477.19.935.527 1.273.338.337.796.527 1.273.527.38 0 .751-.12 1.058-.344.307-.223.536-.538.654-.9.117-.361.117-.751 0-1.112-.118-.362-.347-.677-.654-.9-.307-.224-.678-.344-1.058-.344z" fill="#139dd9"/><path d="M6497 9.1c-12.726 0-24.943 5.061-33.941 14.059C6454.061 32.157 6449 44.374 6449 57.1c0 12.726 5.061 24.943 14.059 33.941 8.998 8.998 21.215 14.059 33.941 14.059 12.726 0 24.943-5.061 33.941-14.059C6539.939 82.043 6545 69.826 6545 57.1c0-12.726-5.061-24.943-14.059-33.941C6521.943 14.161 6509.726 9.1 6497 9.1z" fill="none" stroke="#00aeef" stroke-width="4" stroke-dasharray="300.1919446063922,1.3964436047414297" stroke-dashoffset="301.588388"/><path d="M6610 7.3c-.477 0-.935.19-1.273.527-.337.338-.527.796-.527 1.273 0 .477.19.935.527 1.273.338.337.796.527 1.273.527.38 0 .751-.12 1.058-.344.307-.223.536-.538.654-.9.117-.361.117-.751 0-1.112-.118-.362-.347-.677-.654-.9-.307-.224-.678-.344-1.058-.344z" fill="#139dd9"/><path d="M6610 9.1c-12.726 0-24.943 5.061-33.941 14.059C6567.061 32.157 6562 44.374 6562 57.1c0 12.726 5.061 24.943 14.059 33.941 8.998 8.998 21.215 14.059 33.941 14.059 12.726 0 24.943-5.061 33.941-14.059C6652.939 82.043 6658 69.826 6658 57.1c0-12.726-5.061-24.943-14.059-33.941C6634.943 14.161 6622.726 9.1 6610 9.1z" fill="none" stroke="#00aeef" stroke-width="4" stroke-dasharray="300.98316130622044,0.6052269049131705" stroke-dashoffset="301.588388"/><path d="M6723 7.3c-.477 0-.935.19-1.273.527-.337.338-.527.796-.527 1.273 0 .477.19.935.527 1.273.338.337.796.527 1.273.527.38 0 .751-.12 1.058-.344.307-.223.536-.538.654-.9.117-.361.117-.751 0-1.112-.118-.362-.347-.677-.654-.9-.307-.224-.678-.344-1.058-.344z" fill="#139dd9"/><path d="M6723 9.1c-12.726 0-24.943 5.061-33.941 14.059C6680.061 32.157 6675 44.374 6675 57.1c0 12.726 5.061 24.943 14.059 33.941 8.998 8.998 21.215 14.059 33.941 14.059 12.726 0 24.943-5.061 33.941-14.059C6765.939 82.043 6771 69.826 6771 57.1c0-12.726-5.061-24.943-14.059-33.941C6747.943 14.161 6735.726 9.1 6723 9.1z" fill="none" stroke="#00aeef" stroke-width="4" stroke-dasharray="301.44071510490966,0.14767310622397156" stroke-dashoffset="301.588388"/><path d="M6836 7.3c-.477 0-.935.19-1.273.527-.337.338-.527.796-.527 1.273 0 .477.19.935.527 1.273.338.337.796.527 1.273.527.38 0 .751-.12 1.058-.344.307-.223.536-.538.654-.9.117-.361.117-.751 0-1.112-.118-.362-.347-.677-.654-.9-.307-.224-.678-.344-1.058-.344z" fill="#139dd9"/><path d="M6836 9.1c-12.726 0-24.943 5.061-33.941 14.059C6793.061 32.157 6788 44.374 6788 57.1c0 12.726 5.061 24.943 14.059 33.941 8.998 8.998 21.215 14.059 33.941 14.059 12.726 0 24.943-5.061 33.941-14.059C6878.939 82.043 6884 69.826 6884 57.1c0-12.726-5.061-24.943-14.059-33.941C6860.943 14.161 6848.726 9.1 6836 9.1z" fill="none" stroke="#00aeef" stroke-width="4"/><path d="M6949 7.3c-.477 0-.935.19-1.273.527-.337.338-.527.796-.527 1.273 0 .477.19.935.527 1.273.338.337.796.527 1.273.527.38 0 .751-.12 1.058-.344.307-.223.536-.538.654-.9.117-.361.117-.751 0-1.112-.118-.362-.347-.677-.654-.9-.307-.224-.678-.344-1.058-.344z" fill="#139dd9"/><path d="M6949 9.1c-12.726 0-24.943 5.061-33.941 14.059C6906.061 32.157 6901 44.374 6901 57.1c0 12.726 5.061 24.943 14.059 33.941 8.998 8.998 21.215 14.059 33.941 14.059 12.726 0 24.943-5.061 33.941-14.059C6991.939 82.043 6997 69.826 6997 57.1c0-12.726-5.061-24.943-14.059-33.941C6973.943 14.161 6961.726 9.1 6949 9.1z" fill="none" stroke="#00aeef" stroke-width="4"/><path d="M7062 7.3c-.477 0-.935.19-1.273.527-.337.338-.527.796-.527 1.273 0 .477.19.935.527 1.273.338.337.796.527 1.273.527.38 0 .751-.12 1.058-.344.307-.223.536-.538.654-.9.117-.361.117-.751 0-1.112-.118-.362-.347-.677-.654-.9-.307-.224-.678-.344-1.058-.344z" fill="#139dd9"/><path d="M7062 9.1c-12.726 0-24.943 5.061-33.941 14.059C7019.061 32.157 7014 44.374 7014 57.1c0 12.726 5.061 24.943 14.059 33.941 8.998 8.998 21.215 14.059 33.941 14.059 12.726 0 24.943-5.061 33.941-14.059C7104.939 82.043 7110 69.826 7110 57.1c0-12.726-5.061-24.943-14.059-33.941C7086.943 14.161 7074.726 9.1 7062 9.1z" fill="none" stroke="#00aeef" stroke-width="4"/><path d="M7175 7.3c-.477 0-.935.19-1.273.527-.337.338-.527.796-.527 1.273 0 .477.19.935.527 1.273.338.337.796.527 1.273.527.38 0 .751-.12 1.058-.344.307-.223.536-.538.654-.9.117-.361.117-.751 0-1.112-.118-.362-.347-.677-.654-.9-.307-.224-.678-.344-1.058-.344z" fill="#139dd9"/><path d="M7175 9.1c-12.726 0-24.943 5.061-33.941 14.059C7132.061 32.157 7127 44.374 7127 57.1c0 12.726 5.061 24.943 14.059 33.941 8.998 8.998 21.215 14.059 33.941 14.059 12.726 0 24.943-5.061 33.941-14.059C7217.939 82.043 7223 69.826 7223 57.1c0-12.726-5.061-24.943-14.059-33.941C7199.943 14.161 7187.726 9.1 7175 9.1z" fill="none" stroke="#00aeef" stroke-width="4"/><path d="M7288 7.3c-.477 0-.935.19-1.273.527-.337.338-.527.796-.527 1.273 0 .477.19.935.527 1.273.338.337.796.527 1.273.527.38 0 .751-.12 1.058-.344.307-.223.536-.538.654-.9.117-.361.117-.751 0-1.112-.118-.362-.347-.677-.654-.9-.307-.224-.678-.344-1.058-.344z" fill="#139dd9"/><path d="M7288 9.1c-12.726 0-24.943 5.061-33.941 14.059C7245.061 32.157 7240 44.374 7240 57.1c0 12.726 5.061 24.943 14.059 33.941 8.998 8.998 21.215 14.059 33.941 14.059 12.726 0 24.943-5.061 33.941-14.059C7330.939 82.043 7336 69.826 7336 57.1c0-12.726-5.061-24.943-14.059-33.941C7312.943 14.161 7300.726 9.1 7288 9.1z" fill="none" stroke="#00aeef" stroke-width="4"/><path d="M7401 7.3c-.477 0-.935.19-1.273.527-.337.338-.527.796-.527 1.273 0 .477.19.935.527 1.273.338.337.796.527 1.273.527.38 0 .751-.12 1.058-.344.307-.223.536-.538.654-.9.117-.361.117-.751 0-1.112-.118-.362-.347-.677-.654-.9-.307-.224-.678-.344-1.058-.344z" fill="#139dd9"/><path d="M7401 9.1c-12.726 0-24.943 5.061-33.941 14.059C7358.061 32.157 7353 44.374 7353 57.1c0 12.726 5.061 24.943 14.059 33.941 8.998 8.998 21.215 14.059 33.941 14.059 12.726 0 24.943-5.061 33.941-14.059C7443.939 82.043 7449 69.826 7449 57.1c0-12.726-5.061-24.943-14.059-33.941C7425.943 14.161 7413.726 9.1 7401 9.1z" fill="none" stroke="#00aeef" stroke-width="4"/><path d="M7360.8 71.8c-.465 0-.917.147-1.293.42-.376.273-.656.658-.799 1.1-.144.442-.144.918 0 1.36.143.442.423.827.799 1.1.376.273.828.42 1.293.42.465 0 .917-.147 1.293-.42.376-.273.656-.658.799-1.1.144-.442.144-.918 0-1.36-.143-.442-.423-.827-.799-1.1-.376-.273-.828-.42-1.293-.42zM7514 7.3c-.477 0-.935.19-1.273.527-.337.338-.527.796-.527 1.273 0 .477.19.935.527 1.273.338.337.796.527 1.273.527.38 0 .751-.12 1.058-.344.307-.223.536-.538.654-.9.117-.361.117-.751 0-1.112-.118-.362-.347-.677-.654-.9-.307-.224-.678-.344-1.058-.344z" fill="#139dd9"/><path d="M7514 9.1c-12.726 0-24.943 5.061-33.941 14.059C7471.061 32.157 7466 44.374 7466 57.1c0 12.726 5.061 24.943 14.059 33.941 8.998 8.998 21.215 14.059 33.941 14.059 12.726 0 24.943-5.061 33.941-14.059C7556.939 82.043 7562 69.826 7562 57.1c0-12.726-5.061-24.943-14.059-33.941C7538.943 14.161 7526.726 9.1 7514 9.1z" fill="none" stroke="#00aeef" stroke-width="4"/><path d="M7473.8 71.8c-.465 0-.917.147-1.293.42-.376.273-.656.658-.799 1.1-.144.442-.144.918 0 1.36.143.442.423.827.799 1.1.376.273.828.42 1.293.42.465 0 .917-.147 1.293-.42.376-.273.656-.658.799-1.1.144-.442.144-.918 0-1.36-.143-.442-.423-.827-.799-1.1-.376-.273-.828-.42-1.293-.42zM7627 7.3c-.477 0-.935.19-1.273.527-.337.338-.527.796-.527 1.273 0 .477.19.935.527 1.273.338.337.796.527 1.273.527.38 0 .751-.12 1.058-.344.307-.223.536-.538.654-.9.117-.361.117-.751 0-1.112-.118-.362-.347-.677-.654-.9-.307-.224-.678-.344-1.058-.344z" fill="#139dd9"/><path d="M7627 9.1c-12.726 0-24.943 5.061-33.941 14.059C7584.061 32.157 7579 44.374 7579 57.1c0 12.726 5.061 24.943 14.059 33.941 8.998 8.998 21.215 14.059 33.941 14.059 12.726 0 24.943-5.061 33.941-14.059C7669.939 82.043 7675 69.826 7675 57.1c0-12.726-5.061-24.943-14.059-33.941C7651.943 14.161 7639.726 9.1 7627 9.1z" fill="none" stroke="#00aeef" stroke-width="4"/><path d="M7586.8 71.8c-.465 0-.917.147-1.293.42-.376.273-.656.658-.799 1.1-.144.442-.144.918 0 1.36.143.442.423.827.799 1.1.376.273.828.42 1.293.42.465 0 .917-.147 1.293-.42.376-.273.656-.658.799-1.1.144-.442.144-.918 0-1.36-.143-.442-.423-.827-.799-1.1-.376-.273-.828-.42-1.293-.42z" fill="#139dd9"/><g><path d="M7740 7.3c-.477 0-.935.19-1.273.527-.337.338-.527.796-.527 1.273 0 .477.19.935.527 1.273.338.337.796.527 1.273.527.38 0 .751-.12 1.058-.344.307-.223.536-.538.654-.9.117-.361.117-.751 0-1.112-.118-.362-.347-.677-.654-.9-.307-.224-.678-.344-1.058-.344z" fill="#139dd9"/><path d="M7740 9.1c-12.726 0-24.943 5.061-33.941 14.059C7697.061 32.157 7692 44.374 7692 57.1c0 12.726 5.061 24.943 14.059 33.941 8.998 8.998 21.215 14.059 33.941 14.059 12.726 0 24.943-5.061 33.941-14.059C7782.939 82.043 7788 69.826 7788 57.1c0-12.726-5.061-24.943-14.059-33.941C7764.943 14.161 7752.726 9.1 7740 9.1z" fill="none" stroke="#00aeef" stroke-width="4"/><path d="M7699.8 71.8c-.465 0-.917.147-1.293.42-.376.273-.656.658-.799 1.1-.144.442-.144.918 0 1.36.143.442.423.827.799 1.1.376.273.828.42 1.293.42.465 0 .917-.147 1.293-.42.376-.273.656-.658.799-1.1.144-.442.144-.918 0-1.36-.143-.442-.423-.827-.799-1.1-.376-.273-.828-.42-1.293-.42z" fill="#139dd9"/></g><g><path d="M7853 7.3c-.477 0-.935.19-1.273.527-.337.338-.527.796-.527 1.273 0 .477.19.935.527 1.273.338.337.796.527 1.273.527.38 0 .751-.12 1.058-.344.307-.223.536-.538.654-.9.117-.361.117-.751 0-1.112-.118-.362-.347-.677-.654-.9-.307-.224-.678-.344-1.058-.344z" fill="#139dd9"/><path d="M7853 9.1c-12.726 0-24.943 5.061-33.941 14.059C7810.061 32.157 7805 44.374 7805 57.1c0 12.726 5.061 24.943 14.059 33.941 8.998 8.998 21.215 14.059 33.941 14.059 12.726 0 24.943-5.061 33.941-14.059C7895.939 82.043 7901 69.826 7901 57.1c0-12.726-5.061-24.943-14.059-33.941C7877.943 14.161 7865.726 9.1 7853 9.1z" fill="none" stroke="#00aeef" stroke-width="4"/></g><g><path d="M7966 7.3c-.477 0-.935.19-1.273.527-.337.338-.527.796-.527 1.273 0 .477.19.935.527 1.273.338.337.796.527 1.273.527.38 0 .751-.12 1.058-.344.307-.223.536-.538.654-.9.117-.361.117-.751 0-1.112-.118-.362-.347-.677-.654-.9-.307-.224-.678-.344-1.058-.344z" fill="#139dd9"/><path d="M7966 9.1c-12.726 0-24.943 5.061-33.941 14.059C7923.061 32.157 7918 44.374 7918 57.1c0 12.726 5.061 24.943 14.059 33.941 8.998 8.998 21.215 14.059 33.941 14.059 12.726 0 24.943-5.061 33.941-14.059C8008.939 82.043 8014 69.826 8014 57.1c0-12.726-5.061-24.943-14.059-33.941C7990.943 14.161 7978.726 9.1 7966 9.1z" fill="none" stroke="#00aeef" stroke-width="4"/></g><g><path d="M8079 7.3c-.477 0-.935.19-1.273.527-.337.338-.527.796-.527 1.273 0 .477.19.935.527 1.273.338.337.796.527 1.273.527.38 0 .751-.12 1.058-.344.307-.223.536-.538.654-.9.117-.361.117-.751 0-1.112-.118-.362-.347-.677-.654-.9-.307-.224-.678-.344-1.058-.344z" fill="#139dd9"/><path d="M8079 9.1c-12.726 0-24.943 5.061-33.941 14.059C8036.061 32.157 8031 44.374 8031 57.1c0 12.726 5.061 24.943 14.059 33.941 8.998 8.998 21.215 14.059 33.941 14.059 12.726 0 24.943-5.061 33.941-14.059C8121.939 82.043 8127 69.826 8127 57.1c0-12.726-5.061-24.943-14.059-33.941C8103.943 14.161 8091.726 9.1 8079 9.1z" fill="none" stroke="#00aeef" stroke-width="4"/></g><g><path d="M8192 7.3c-.477 0-.935.19-1.273.527-.337.338-.527.796-.527 1.273 0 .477.19.935.527 1.273.338.337.796.527 1.273.527.38 0 .751-.12 1.058-.344.307-.223.536-.538.654-.9.117-.361.117-.751 0-1.112-.118-.362-.347-.677-.654-.9-.307-.224-.678-.344-1.058-.344z" fill="#139dd9"/><path d="M8192 9.1c-12.726 0-24.943 5.061-33.941 14.059C8149.061 32.157 8144 44.374 8144 57.1c0 12.726 5.061 24.943 14.059 33.941 8.998 8.998 21.215 14.059 33.941 14.059 12.726 0 24.943-5.061 33.941-14.059C8234.939 82.043 8240 69.826 8240 57.1c0-12.726-5.061-24.943-14.059-33.941C8216.943 14.161 8204.726 9.1 8192 9.1z" fill="none" stroke="#00aeef" stroke-width="4"/></g><g><path d="M8305 7.3c-.477 0-.935.19-1.273.527-.337.338-.527.796-.527 1.273 0 .477.19.935.527 1.273.338.337.796.527 1.273.527.38 0 .751-.12 1.058-.344.307-.223.536-.538.654-.9.117-.361.117-.751 0-1.112-.118-.362-.347-.677-.654-.9-.307-.224-.678-.344-1.058-.344z" fill="#139dd9"/><path d="M8305 9.1c-12.726 0-24.943 5.061-33.941 14.059C8262.061 32.157 8257 44.374 8257 57.1c0 12.726 5.061 24.943 14.059 33.941 8.998 8.998 21.215 14.059 33.941 14.059 12.726 0 24.943-5.061 33.941-14.059C8347.939 82.043 8353 69.826 8353 57.1c0-12.726-5.061-24.943-14.059-33.941C8329.943 14.161 8317.726 9.1 8305 9.1z" fill="none" stroke="#00aeef" stroke-width="4"/></g><g><path d="M8418 7.3c-.477 0-.935.19-1.273.527-.337.338-.527.796-.527 1.273 0 .477.19.935.527 1.273.338.337.796.527 1.273.527.38 0 .751-.12 1.058-.344.307-.223.536-.538.654-.9.117-.361.117-.751 0-1.112-.118-.362-.347-.677-.654-.9-.307-.224-.678-.344-1.058-.344z" fill="#139dd9"/><path d="M8418 9.1c-12.726 0-24.943 5.061-33.941 14.059C8375.061 32.157 8370 44.374 8370 57.1c0 12.726 5.061 24.943 14.059 33.941 8.998 8.998 21.215 14.059 33.941 14.059 12.726 0 24.943-5.061 33.941-14.059C8460.939 82.043 8466 69.826 8466 57.1c0-12.726-5.061-24.943-14.059-33.941C8442.943 14.161 8430.726 9.1 8418 9.1z" fill="none" stroke="#00aeef" stroke-width="4"/></g><g><path d="M8531 7.3c-.477 0-.935.19-1.273.527-.337.338-.527.796-.527 1.273 0 .477.19.935.527 1.273.338.337.796.527 1.273.527.38 0 .751-.12 1.058-.344.307-.223.536-.538.654-.9.117-.361.117-.751 0-1.112-.118-.362-.347-.677-.654-.9-.307-.224-.678-.344-1.058-.344z" fill="#139dd9"/><path d="M8531 9.1c-12.726 0-24.943 5.061-33.941 14.059C8488.061 32.157 8483 44.374 8483 57.1c0 12.726 5.061 24.943 14.059 33.941 8.998 8.998 21.215 14.059 33.941 14.059 12.726 0 24.943-5.061 33.941-14.059C8573.939 82.043 8579 69.826 8579 57.1c0-12.726-5.061-24.943-14.059-33.941C8555.943 14.161 8543.726 9.1 8531 9.1z" fill="none" stroke="#00aeef" stroke-width="4"/></g><g><path d="M8644 7.3c-.477 0-.935.19-1.273.527-.337.338-.527.796-.527 1.273 0 .477.19.935.527 1.273.338.337.796.527 1.273.527.38 0 .751-.12 1.058-.344.307-.223.536-.538.654-.9.117-.361.117-.751 0-1.112-.118-.362-.347-.677-.654-.9-.307-.224-.678-.344-1.058-.344z" fill="#139dd9"/><path d="M8644 9.1c-12.726 0-24.943 5.061-33.941 14.059C8601.061 32.157 8596 44.374 8596 57.1c0 12.726 5.061 24.943 14.059 33.941 8.998 8.998 21.215 14.059 33.941 14.059 12.726 0 24.943-5.061 33.941-14.059C8686.939 82.043 8692 69.826 8692 57.1c0-12.726-5.061-24.943-14.059-33.941C8668.943 14.161 8656.726 9.1 8644 9.1z" fill="none" stroke="#00aeef" stroke-width="4"/></g><g><path d="M8757 7.3c-.477 0-.935.19-1.273.527-.337.338-.527.796-.527 1.273 0 .477.19.935.527 1.273.338.337.796.527 1.273.527.38 0 .751-.12 1.058-.344.307-.223.536-.538.654-.9.117-.361.117-.751 0-1.112-.118-.362-.347-.677-.654-.9-.307-.224-.678-.344-1.058-.344z" fill="#139dd9"/><path d="M8757 9.1c-12.726 0-24.943 5.061-33.941 14.059C8714.061 32.157 8709 44.374 8709 57.1c0 12.726 5.061 24.943 14.059 33.941 8.998 8.998 21.215 14.059 33.941 14.059 12.726 0 24.943-5.061 33.941-14.059C8799.939 82.043 8805 69.826 8805 57.1c0-12.726-5.061-24.943-14.059-33.941C8781.943 14.161 8769.726 9.1 8757 9.1z" fill="none" stroke="#00aeef" stroke-width="4"/></g><g><path d="M8870 7.3c-.477 0-.935.19-1.273.527-.337.338-.527.796-.527 1.273 0 .477.19.935.527 1.273.338.337.796.527 1.273.527.38 0 .751-.12 1.058-.344.307-.223.536-.538.654-.9.117-.361.117-.751 0-1.112-.118-.362-.347-.677-.654-.9-.307-.224-.678-.344-1.058-.344z" fill="#139dd9"/><path d="M8870 9.1c-12.726 0-24.943 5.061-33.941 14.059C8827.061 32.157 8822 44.374 8822 57.1c0 12.726 5.061 24.943 14.059 33.941 8.998 8.998 21.215 14.059 33.941 14.059 12.726 0 24.943-5.061 33.941-14.059C8912.939 82.043 8918 69.826 8918 57.1c0-12.726-5.061-24.943-14.059-33.941C8894.943 14.161 8882.726 9.1 8870 9.1z" fill="none" stroke="#00aeef" stroke-width="4"/></g><g><path d="M8983 7.3c-.477 0-.935.19-1.273.527-.337.338-.527.796-.527 1.273 0 .477.19.935.527 1.273.338.337.796.527 1.273.527.38 0 .751-.12 1.058-.344.307-.223.536-.538.654-.9.117-.361.117-.751 0-1.112-.118-.362-.347-.677-.654-.9-.307-.224-.678-.344-1.058-.344z" fill="#139dd9"/><path d="M8983 9.1c-12.726 0-24.943 5.061-33.941 14.059C8940.061 32.157 8935 44.374 8935 57.1c0 12.726 5.061 24.943 14.059 33.941 8.998 8.998 21.215 14.059 33.941 14.059 12.726 0 24.943-5.061 33.941-14.059C9025.939 82.043 9031 69.826 9031 57.1c0-12.726-5.061-24.943-14.059-33.941C9007.943 14.161 8995.726 9.1 8983 9.1z" fill="none" stroke="#00aeef" stroke-width="4"/></g><g><path d="M9096 7.3c-.477 0-.935.19-1.273.527-.337.338-.527.796-.527 1.273 0 .477.19.935.527 1.273.338.337.796.527 1.273.527.38 0 .751-.12 1.058-.344.307-.223.536-.538.654-.9.117-.361.117-.751 0-1.112-.118-.362-.347-.677-.654-.9-.307-.224-.678-.344-1.058-.344z" fill="#139dd9"/><path d="M9096 9.1c-12.726 0-24.943 5.061-33.941 14.059C9053.061 32.157 9048 44.374 9048 57.1c0 12.726 5.061 24.943 14.059 33.941 8.998 8.998 21.215 14.059 33.941 14.059 12.726 0 24.943-5.061 33.941-14.059C9138.939 82.043 9144 69.826 9144 57.1c0-12.726-5.061-24.943-14.059-33.941C9120.943 14.161 9108.726 9.1 9096 9.1z" fill="none" stroke="#00aeef" stroke-width="4"/><path d="M9055.8 71.8c-.465 0-.917.147-1.293.42-.376.273-.656.658-.799 1.1-.144.442-.144.918 0 1.36.143.442.423.827.799 1.1.376.273.828.42 1.293.42.465 0 .917-.147 1.293-.42.376-.273.656-.658.799-1.1.144-.442.144-.918 0-1.36-.143-.442-.423-.827-.799-1.1-.376-.273-.828-.42-1.293-.42z" fill="#139dd9"/></g><g><path d="M9209 7.3c-.477 0-.935.19-1.273.527-.337.338-.527.796-.527 1.273 0 .477.19.935.527 1.273.338.337.796.527 1.273.527.38 0 .751-.12 1.058-.344.307-.223.536-.538.654-.9.117-.361.117-.751 0-1.112-.118-.362-.347-.677-.654-.9-.307-.224-.678-.344-1.058-.344z" fill="#139dd9"/><path d="M9209 9.1c-12.726 0-24.943 5.061-33.941 14.059C9166.061 32.157 9161 44.374 9161 57.1c0 12.726 5.061 24.943 14.059 33.941 8.998 8.998 21.215 14.059 33.941 14.059 12.726 0 24.943-5.061 33.941-14.059C9251.939 82.043 9257 69.826 9257 57.1c0-12.726-5.061-24.943-14.059-33.941C9233.943 14.161 9221.726 9.1 9209 9.1z" fill="none" stroke="#00aeef" stroke-width="4"/><path d="M9168.8 71.8c-.465 0-.917.147-1.293.42-.376.273-.656.658-.799 1.1-.144.442-.144.918 0 1.36.143.442.423.827.799 1.1.376.273.828.42 1.293.42.465 0 .917-.147 1.293-.42.376-.273.656-.658.799-1.1.144-.442.144-.918 0-1.36-.143-.442-.423-.827-.799-1.1-.376-.273-.828-.42-1.293-.42z" fill="#139dd9"/></g><g><path d="M9322 7.3c-.477 0-.935.19-1.273.527-.337.338-.527.796-.527 1.273 0 .477.19.935.527 1.273.338.337.796.527 1.273.527.38 0 .751-.12 1.058-.344.307-.223.536-.538.654-.9.117-.361.117-.751 0-1.112-.118-.362-.347-.677-.654-.9-.307-.224-.678-.344-1.058-.344z" fill="#139dd9"/><path d="M9322 9.1c-12.726 0-24.943 5.061-33.941 14.059C9279.061 32.157 9274 44.374 9274 57.1c0 12.726 5.061 24.943 14.059 33.941 8.998 8.998 21.215 14.059 33.941 14.059 12.726 0 24.943-5.061 33.941-14.059C9364.939 82.043 9370 69.826 9370 57.1c0-12.726-5.061-24.943-14.059-33.941C9346.943 14.161 9334.726 9.1 9322 9.1z" fill="none" stroke="#00aeef" stroke-width="4"/><path d="M9281.8 71.8c-.465 0-.917.147-1.293.42-.376.273-.656.658-.799 1.1-.144.442-.144.918 0 1.36.143.442.423.827.799 1.1.376.273.828.42 1.293.42.465 0 .917-.147 1.293-.42.376-.273.656-.658.799-1.1.144-.442.144-.918 0-1.36-.143-.442-.423-.827-.799-1.1-.376-.273-.828-.42-1.293-.42z" fill="#139dd9"/></g><g><path d="M9435 7.3c-.477 0-.935.19-1.273.527-.337.338-.527.796-.527 1.273 0 .477.19.935.527 1.273.338.337.796.527 1.273.527.38 0 .751-.12 1.058-.344.307-.223.536-.538.654-.9.117-.361.117-.751 0-1.112-.118-.362-.347-.677-.654-.9-.307-.224-.678-.344-1.058-.344z" fill="#139dd9"/><path d="M9435 9.1c-12.726 0-24.943 5.061-33.941 14.059C9392.061 32.157 9387 44.374 9387 57.1c0 12.726 5.061 24.943 14.059 33.941 8.998 8.998 21.215 14.059 33.941 14.059 12.726 0 24.943-5.061 33.941-14.059C9477.939 82.043 9483 69.826 9483 57.1c0-12.726-5.061-24.943-14.059-33.941C9459.943 14.161 9447.726 9.1 9435 9.1z" fill="none" stroke="#00aeef" stroke-width="4"/><path d="M9394.8 71.8c-.465 0-.917.147-1.293.42-.376.273-.656.658-.799 1.1-.144.442-.144.918 0 1.36.143.442.423.827.799 1.1.376.273.828.42 1.293.42.465 0 .917-.147 1.293-.42.376-.273.656-.658.799-1.1.144-.442.144-.918 0-1.36-.143-.442-.423-.827-.799-1.1-.376-.273-.828-.42-1.293-.42z" fill="#139dd9"/></g><g><path d="M9548 7.3c-.477 0-.935.19-1.273.527-.337.338-.527.796-.527 1.273 0 .477.19.935.527 1.273.338.337.796.527 1.273.527.38 0 .751-.12 1.058-.344.307-.223.536-.538.654-.9.117-.361.117-.751 0-1.112-.118-.362-.347-.677-.654-.9-.307-.224-.678-.344-1.058-.344z" fill="#139dd9"/><path d="M9548 9.1c-12.726 0-24.943 5.061-33.941 14.059C9505.061 32.157 9500 44.374 9500 57.1c0 12.726 5.061 24.943 14.059 33.941 8.998 8.998 21.215 14.059 33.941 14.059 12.726 0 24.943-5.061 33.941-14.059C9590.939 82.043 9596 69.826 9596 57.1c0-12.726-5.061-24.943-14.059-33.941C9572.943 14.161 9560.726 9.1 9548 9.1z" fill="none" stroke="#00aeef" stroke-width="4"/><path d="M9509.892 73.32c-.143-.442-.423-.827-.799-1.1-.376-.273-.828-.42-1.293-.42-.465 0-.917.147-1.293.42-.376.273-.656.658-.799 1.1-.144.442-.144.918 0 1.36.143.442.423.827.799 1.1.376.273.828.42 1.293.42.465 0 .917-.147 1.293-.42.376-.273.656-.658.799-1.1.144-.442.144-.918 0-1.36" fill="#139dd9"/></g><g><path d="M9661 7.3c-.477 0-.935.19-1.273.527-.337.338-.527.796-.527 1.273 0 .477.19.935.527 1.273.338.337.796.527 1.273.527.38 0 .751-.12 1.058-.344.307-.223.536-.538.654-.9.117-.361.117-.751 0-1.112-.118-.362-.347-.677-.654-.9-.307-.224-.678-.344-1.058-.344z" fill="#139dd9"/><path d="M9661 9.1c-12.726 0-24.943 5.061-33.941 14.059C9618.061 32.157 9613 44.374 9613 57.1c0 12.726 5.061 24.943 14.059 33.941 8.998 8.998 21.215 14.059 33.941 14.059 12.726 0 24.943-5.061 33.941-14.059C9703.939 82.043 9709 69.826 9709 57.1c0-12.726-5.061-24.943-14.059-33.941C9685.943 14.161 9673.726 9.1 9661 9.1z" fill="none" stroke="#00aeef" stroke-width="4"/><path d="M9622.892 73.32c-.143-.442-.423-.827-.799-1.1-.376-.273-.828-.42-1.293-.42-.465 0-.917.147-1.293.42-.376.273-.656.658-.799 1.1-.144.442-.144.918 0 1.36.143.442.423.827.799 1.1.376.273.828.42 1.293.42.465 0 .917-.147 1.293-.42.376-.273.656-.658.799-1.1.144-.442.144-.918 0-1.36" fill="#139dd9"/></g><g><path d="M9774 7.3c-.477 0-.935.19-1.273.527-.337.338-.527.796-.527 1.273 0 .477.19.935.527 1.273.338.337.796.527 1.273.527.38 0 .751-.12 1.058-.344.307-.223.536-.538.654-.9.117-.361.117-.751 0-1.112-.118-.362-.347-.677-.654-.9-.307-.224-.678-.344-1.058-.344z" fill="#139dd9"/><path d="M9774 9.1c-12.726 0-24.943 5.061-33.941 14.059C9731.061 32.157 9726 44.374 9726 57.1c0 12.726 5.061 24.943 14.059 33.941 8.998 8.998 21.215 14.059 33.941 14.059 12.726 0 24.943-5.061 33.941-14.059C9816.939 82.043 9822 69.826 9822 57.1c0-12.726-5.061-24.943-14.059-33.941C9798.943 14.161 9786.726 9.1 9774 9.1z" fill="none" stroke="#00aeef" stroke-width="4"/><path d="M9735.892 73.32c-.143-.442-.423-.827-.799-1.1-.376-.273-.828-.42-1.293-.42-.465 0-.917.147-1.293.42-.376.273-.656.658-.799 1.1-.144.442-.144.918 0 1.36.143.442.423.827.799 1.1.376.273.828.42 1.293.42.465 0 .917-.147 1.293-.42.376-.273.656-.658.799-1.1.144-.442.144-.918 0-1.36" fill="#139dd9"/></g><g><path d="M9887 7.3c-.477 0-.935.19-1.273.527-.337.338-.527.796-.527 1.273 0 .477.19.935.527 1.273.338.337.796.527 1.273.527.38 0 .751-.12 1.058-.344.307-.223.536-.538.654-.9.117-.361.117-.751 0-1.112-.118-.362-.347-.677-.654-.9-.307-.224-.678-.344-1.058-.344z" fill="#139dd9"/><path d="M9887 9.1c-12.726 0-24.943 5.061-33.941 14.059C9844.061 32.157 9839 44.374 9839 57.1c0 12.726 5.061 24.943 14.059 33.941 8.998 8.998 21.215 14.059 33.941 14.059 12.726 0 24.943-5.061 33.941-14.059C9929.939 82.043 9935 69.826 9935 57.1c0-12.726-5.061-24.943-14.059-33.941C9911.943 14.161 9899.726 9.1 9887 9.1z" fill="none" stroke="#00aeef" stroke-width="4"/><path d="M9848.892 73.32c-.143-.442-.423-.827-.799-1.1-.376-.273-.828-.42-1.293-.42-.465 0-.917.147-1.293.42-.376.273-.656.658-.799 1.1-.144.442-.144.918 0 1.36.143.442.423.827.799 1.1.376.273.828.42 1.293.42.465 0 .917-.147 1.293-.42.376-.273.656-.658.799-1.1.144-.442.144-.918 0-1.36" fill="#139dd9"/></g><g><path d="M10000 7.3c-.477 0-.935.19-1.273.527-.337.338-.527.796-.527 1.273 0 .477.19.935.527 1.273.338.337.796.527 1.273.527.38 0 .751-.12 1.058-.344.307-.223.536-.538.654-.9.117-.361.117-.751 0-1.112-.118-.362-.347-.677-.654-.9-.307-.224-.678-.344-1.058-.344z" fill="#139dd9"/><path d="M10000 9.1c-12.726 0-24.943 5.061-33.941 14.059C9957.061 32.157 9952 44.374 9952 57.1c0 12.726 5.061 24.943 14.059 33.941 8.998 8.998 21.215 14.059 33.941 14.059 12.726 0 24.943-5.061 33.941-14.059 8.998-8.998 14.059-21.215 14.059-33.941 0-12.726-5.061-24.943-14.059-33.941-8.998-8.998-21.215-14.059-33.941-14.059z" fill="none" stroke="#00aeef" stroke-width="4"/><path d="M9961.892 73.32c-.143-.442-.423-.827-.799-1.1-.376-.273-.828-.42-1.293-.42-.465 0-.917.147-1.293.42-.376.273-.656.658-.799 1.1-.144.442-.144.918 0 1.36.143.442.423.827.799 1.1.376.273.828.42 1.293.42.465 0 .917-.147 1.293-.42.376-.273.656-.658.799-1.1.144-.442.144-.918 0-1.36" fill="#139dd9"/></g><g><path d="M10113 7.3c-.477 0-.935.19-1.273.527-.337.338-.527.796-.527 1.273 0 .477.19.935.527 1.273.338.337.796.527 1.273.527.38 0 .751-.12 1.058-.344.307-.223.536-.538.654-.9.117-.361.117-.751 0-1.112-.118-.362-.347-.677-.654-.9-.307-.224-.678-.344-1.058-.344z" fill="#139dd9"/><path d="M10113 9.1c-12.726 0-24.943 5.061-33.941 14.059-8.998 8.998-14.059 21.215-14.059 33.941 0 12.726 5.061 24.943 14.059 33.941 8.998 8.998 21.215 14.059 33.941 14.059 12.726 0 24.943-5.061 33.941-14.059 8.998-8.998 14.059-21.215 14.059-33.941 0-12.726-5.061-24.943-14.059-33.941-8.998-8.998-21.215-14.059-33.941-14.059z" fill="none" stroke="#00aeef" stroke-width="4"/><path d="M10074.892 73.32c-.143-.442-.423-.827-.799-1.1-.376-.273-.828-.42-1.293-.42-.465 0-.917.147-1.293.42-.376.273-.656.658-.799 1.1-.144.442-.144.918 0 1.36.143.442.423.827.799 1.1.376.273.828.42 1.293.42.465 0 .917-.147 1.293-.42.376-.273.656-.658.799-1.1.144-.442.144-.918 0-1.36" fill="#139dd9"/></g><g><path d="M10226 7.3c-.477 0-.935.19-1.273.527-.337.338-.527.796-.527 1.273 0 .477.19.935.527 1.273.338.337.796.527 1.273.527.38 0 .751-.12 1.058-.344.307-.223.536-.538.654-.9.117-.361.117-.751 0-1.112-.118-.362-.347-.677-.654-.9-.307-.224-.678-.344-1.058-.344z" fill="#139dd9"/><path d="M10226 9.1c-12.726 0-24.943 5.061-33.941 14.059-8.998 8.998-14.059 21.215-14.059 33.941 0 12.726 5.061 24.943 14.059 33.941 8.998 8.998 21.215 14.059 33.941 14.059 12.726 0 24.943-5.061 33.941-14.059 8.998-8.998 14.059-21.215 14.059-33.941 0-12.726-5.061-24.943-14.059-33.941-8.998-8.998-21.215-14.059-33.941-14.059z" fill="none" stroke="#00aeef" stroke-width="4"/><path d="M10187.892 73.32c-.143-.442-.423-.827-.799-1.1-.376-.273-.828-.42-1.293-.42-.465 0-.917.147-1.293.42-.376.273-.656.658-.799 1.1-.144.442-.144.918 0 1.36.143.442.423.827.799 1.1.376.273.828.42 1.293.42.465 0 .917-.147 1.293-.42.376-.273.656-.658.799-1.1.144-.442.144-.918 0-1.36" fill="#139dd9"/></g><g><path d="M10339 7.3c-.477 0-.935.19-1.273.527-.337.338-.527.796-.527 1.273 0 .477.19.935.527 1.273.338.337.796.527 1.273.527.38 0 .751-.12 1.058-.344.307-.223.536-.538.654-.9.117-.361.117-.751 0-1.112-.118-.362-.347-.677-.654-.9-.307-.224-.678-.344-1.058-.344z" fill="#139dd9"/><path d="M10339 9.1c-12.726 0-24.943 5.061-33.941 14.059-8.998 8.998-14.059 21.215-14.059 33.941 0 12.726 5.061 24.943 14.059 33.941 8.998 8.998 21.215 14.059 33.941 14.059 12.726 0 24.943-5.061 33.941-14.059 8.998-8.998 14.059-21.215 14.059-33.941 0-12.726-5.061-24.943-14.059-33.941-8.998-8.998-21.215-14.059-33.941-14.059z" fill="none" stroke="#00aeef" stroke-width="4"/><path d="M10300.892 73.32c-.143-.442-.423-.827-.799-1.1-.376-.273-.828-.42-1.293-.42-.465 0-.917.147-1.293.42-.376.273-.656.658-.799 1.1-.144.442-.144.918 0 1.36.143.442.423.827.799 1.1.376.273.828.42 1.293.42.465 0 .917-.147 1.293-.42.376-.273.656-.658.799-1.1.144-.442.144-.918 0-1.36" fill="#139dd9"/></g><g><path d="M10452 7.3c-.477 0-.935.19-1.273.527-.337.338-.527.796-.527 1.273 0 .477.19.935.527 1.273.338.337.796.527 1.273.527.38 0 .751-.12 1.058-.344.307-.223.536-.538.654-.9.117-.361.117-.751 0-1.112-.118-.362-.347-.677-.654-.9-.307-.224-.678-.344-1.058-.344z" fill="#139dd9"/><path d="M10452 9.1c-12.726 0-24.943 5.061-33.941 14.059-8.998 8.998-14.059 21.215-14.059 33.941 0 12.726 5.061 24.943 14.059 33.941 8.998 8.998 21.215 14.059 33.941 14.059 12.726 0 24.943-5.061 33.941-14.059 8.998-8.998 14.059-21.215 14.059-33.941 0-12.726-5.061-24.943-14.059-33.941-8.998-8.998-21.215-14.059-33.941-14.059z" fill="none" stroke="#00aeef" stroke-width="4"/><path d="M10413.892 73.32c-.143-.442-.423-.827-.799-1.1-.376-.273-.828-.42-1.293-.42-.465 0-.917.147-1.293.42-.376.273-.656.658-.799 1.1-.144.442-.144.918 0 1.36.143.442.423.827.799 1.1.376.273.828.42 1.293.42.465 0 .917-.147 1.293-.42.376-.273.656-.658.799-1.1.144-.442.144-.918 0-1.36" fill="#139dd9"/></g><g><path d="M10565 7.3c-.477 0-.935.19-1.273.527-.337.338-.527.796-.527 1.273 0 .477.19.935.527 1.273.338.337.796.527 1.273.527.38 0 .751-.12 1.058-.344.307-.223.536-.538.654-.9.117-.361.117-.751 0-1.112-.118-.362-.347-.677-.654-.9-.307-.224-.678-.344-1.058-.344z" fill="#139dd9"/><path d="M10565 9.1c-12.726 0-24.943 5.061-33.941 14.059-8.998 8.998-14.059 21.215-14.059 33.941 0 12.726 5.061 24.943 14.059 33.941 8.998 8.998 21.215 14.059 33.941 14.059 12.726 0 24.943-5.061 33.941-14.059 8.998-8.998 14.059-21.215 14.059-33.941 0-12.726-5.061-24.943-14.059-33.941-8.998-8.998-21.215-14.059-33.941-14.059z" fill="none" stroke="#00aeef" stroke-width="4"/><path d="M10526.892 73.32c-.143-.442-.423-.827-.799-1.1-.376-.273-.828-.42-1.293-.42-.465 0-.917.147-1.293.42-.376.273-.656.658-.799 1.1-.144.442-.144.918 0 1.36.143.442.423.827.799 1.1.376.273.828.42 1.293.42.465 0 .917-.147 1.293-.42.376-.273.656-.658.799-1.1.144-.442.144-.918 0-1.36" fill="#139dd9"/></g><g><path d="M10678 7.3c-.477 0-.935.19-1.273.527-.337.338-.527.796-.527 1.273 0 .477.19.935.527 1.273.338.337.796.527 1.273.527.38 0 .751-.12 1.058-.344.307-.223.536-.538.654-.9.117-.361.117-.751 0-1.112-.118-.362-.347-.677-.654-.9-.307-.224-.678-.344-1.058-.344z" fill="#139dd9"/><path d="M10678 9.1c-12.726 0-24.943 5.061-33.941 14.059-8.998 8.998-14.059 21.215-14.059 33.941 0 12.726 5.061 24.943 14.059 33.941 8.998 8.998 21.215 14.059 33.941 14.059 12.726 0 24.943-5.061 33.941-14.059 8.998-8.998 14.059-21.215 14.059-33.941 0-12.726-5.061-24.943-14.059-33.941-8.998-8.998-21.215-14.059-33.941-14.059z" fill="none" stroke="#00aeef" stroke-width="4"/><path d="M10639.892 73.32c-.143-.442-.423-.827-.799-1.1-.376-.273-.828-.42-1.293-.42-.465 0-.917.147-1.293.42-.376.273-.656.658-.799 1.1-.144.442-.144.918 0 1.36.143.442.423.827.799 1.1.376.273.828.42 1.293.42.465 0 .917-.147 1.293-.42.376-.273.656-.658.799-1.1.144-.442.144-.918 0-1.36" fill="#139dd9"/></g><g><path d="M10791 7.3c-.477 0-.935.19-1.273.527-.337.338-.527.796-.527 1.273 0 .477.19.935.527 1.273.338.337.796.527 1.273.527.38 0 .751-.12 1.058-.344.307-.223.536-.538.654-.9.117-.361.117-.751 0-1.112-.118-.362-.347-.677-.654-.9-.307-.224-.678-.344-1.058-.344z" fill="#139dd9"/><path d="M10791 9.1c-12.726 0-24.943 5.061-33.941 14.059-8.998 8.998-14.059 21.215-14.059 33.941 0 12.726 5.061 24.943 14.059 33.941 8.998 8.998 21.215 14.059 33.941 14.059 12.726 0 24.943-5.061 33.941-14.059 8.998-8.998 14.059-21.215 14.059-33.941 0-12.726-5.061-24.943-14.059-33.941-8.998-8.998-21.215-14.059-33.941-14.059z" fill="none" stroke="#00aeef" stroke-width="4"/><path d="M10752.892 73.32c-.143-.442-.423-.827-.799-1.1-.376-.273-.828-.42-1.293-.42-.465 0-.917.147-1.293.42-.376.273-.656.658-.799 1.1-.144.442-.144.918 0 1.36.143.442.423.827.799 1.1.376.273.828.42 1.293.42.465 0 .917-.147 1.293-.42.376-.273.656-.658.799-1.1.144-.442.144-.918 0-1.36" fill="#139dd9"/></g><g><path d="M10904 7.3c-.477 0-.935.19-1.273.527-.337.338-.527.796-.527 1.273 0 .477.19.935.527 1.273.338.337.796.527 1.273.527.38 0 .751-.12 1.058-.344.307-.223.536-.538.654-.9.117-.361.117-.751 0-1.112-.118-.362-.347-.677-.654-.9-.307-.224-.678-.344-1.058-.344z" fill="#139dd9"/><path d="M10904 9.1c-12.726 0-24.943 5.061-33.941 14.059-8.998 8.998-14.059 21.215-14.059 33.941 0 12.726 5.061 24.943 14.059 33.941 8.998 8.998 21.215 14.059 33.941 14.059 12.726 0 24.943-5.061 33.941-14.059 8.998-8.998 14.059-21.215 14.059-33.941 0-12.726-5.061-24.943-14.059-33.941-8.998-8.998-21.215-14.059-33.941-14.059z" fill="none" stroke="#00aeef" stroke-width="4"/><path d="M10865.892 73.32c-.143-.442-.423-.827-.799-1.1-.376-.273-.828-.42-1.293-.42-.465 0-.917.147-1.293.42-.376.273-.656.658-.799 1.1-.144.442-.144.918 0 1.36.143.442.423.827.799 1.1.376.273.828.42 1.293.42.465 0 .917-.147 1.293-.42.376-.273.656-.658.799-1.1.144-.442.144-.918 0-1.36" fill="#139dd9"/></g><g><path d="M11017 7.3c-.477 0-.935.19-1.273.527-.337.338-.527.796-.527 1.273 0 .477.19.935.527 1.273.338.337.796.527 1.273.527.38 0 .751-.12 1.058-.344.307-.223.536-.538.654-.9.117-.361.117-.751 0-1.112-.118-.362-.347-.677-.654-.9-.307-.224-.678-.344-1.058-.344z" fill="#139dd9"/><path d="M11017 9.1c-12.726 0-24.943 5.061-33.941 14.059-8.998 8.998-14.059 21.215-14.059 33.941 0 12.726 5.061 24.943 14.059 33.941 8.998 8.998 21.215 14.059 33.941 14.059 12.726 0 24.943-5.061 33.941-14.059 8.998-8.998 14.059-21.215 14.059-33.941 0-12.726-5.061-24.943-14.059-33.941-8.998-8.998-21.215-14.059-33.941-14.059z" fill="none" stroke="#00aeef" stroke-width="4"/><path d="M10978.892 73.32c-.143-.442-.423-.827-.799-1.1-.376-.273-.828-.42-1.293-.42-.465 0-.917.147-1.293.42-.376.273-.656.658-.799 1.1-.144.442-.144.918 0 1.36.143.442.423.827.799 1.1.376.273.828.42 1.293.42.465 0 .917-.147 1.293-.42.376-.273.656-.658.799-1.1.144-.442.144-.918 0-1.36" fill="#139dd9"/></g><g><path d="M11130 7.3c-.477 0-.935.19-1.273.527-.337.338-.527.796-.527 1.273 0 .477.19.935.527 1.273.338.337.796.527 1.273.527.38 0 .751-.12 1.058-.344.307-.223.536-.538.654-.9.117-.361.117-.751 0-1.112-.118-.362-.347-.677-.654-.9-.307-.224-.678-.344-1.058-.344z" fill="#139dd9"/><path d="M11130 9.1c-12.726 0-24.943 5.061-33.941 14.059-8.998 8.998-14.059 21.215-14.059 33.941 0 12.726 5.061 24.943 14.059 33.941 8.998 8.998 21.215 14.059 33.941 14.059 12.726 0 24.943-5.061 33.941-14.059 8.998-8.998 14.059-21.215 14.059-33.941 0-12.726-5.061-24.943-14.059-33.941-8.998-8.998-21.215-14.059-33.941-14.059z" fill="none" stroke="#00aeef" stroke-width="4"/><path d="M11091.892 73.32c-.143-.442-.423-.827-.799-1.1-.376-.273-.828-.42-1.293-.42-.465 0-.917.147-1.293.42-.376.273-.656.658-.799 1.1-.144.442-.144.918 0 1.36.143.442.423.827.799 1.1.376.273.828.42 1.293.42.465 0 .917-.147 1.293-.42.376-.273.656-.658.799-1.1.144-.442.144-.918 0-1.36" fill="#139dd9"/></g><g><path d="M11243 7.3c-.477 0-.935.19-1.273.527-.337.338-.527.796-.527 1.273 0 .477.19.935.527 1.273.338.337.796.527 1.273.527.38 0 .751-.12 1.058-.344.307-.223.536-.538.654-.9.117-.361.117-.751 0-1.112-.118-.362-.347-.677-.654-.9-.307-.224-.678-.344-1.058-.344z" fill="#139dd9"/><path d="M11243 9.1c-12.726 0-24.943 5.061-33.941 14.059-8.998 8.998-14.059 21.215-14.059 33.941 0 12.726 5.061 24.943 14.059 33.941 8.998 8.998 21.215 14.059 33.941 14.059 12.726 0 24.943-5.061 33.941-14.059 8.998-8.998 14.059-21.215 14.059-33.941 0-12.726-5.061-24.943-14.059-33.941-8.998-8.998-21.215-14.059-33.941-14.059z" fill="none" stroke="#00aeef" stroke-width="4"/><path d="M11204.892 73.32c-.143-.442-.423-.827-.799-1.1-.376-.273-.828-.42-1.293-.42-.465 0-.917.147-1.293.42-.376.273-.656.658-.799 1.1-.144.442-.144.918 0 1.36.143.442.423.827.799 1.1.376.273.828.42 1.293.42.465 0 .917-.147 1.293-.42.376-.273.656-.658.799-1.1.144-.442.144-.918 0-1.36" fill="#139dd9"/></g><g><path d="M11356 7.3c-.477 0-.935.19-1.273.527-.337.338-.527.796-.527 1.273 0 .477.19.935.527 1.273.338.337.796.527 1.273.527.38 0 .751-.12 1.058-.344.307-.223.536-.538.654-.9.117-.361.117-.751 0-1.112-.118-.362-.347-.677-.654-.9-.307-.224-.678-.344-1.058-.344z" fill="#139dd9"/><path d="M11356 9.1c-12.726 0-24.943 5.061-33.941 14.059-8.998 8.998-14.059 21.215-14.059 33.941 0 12.726 5.061 24.943 14.059 33.941 8.998 8.998 21.215 14.059 33.941 14.059 12.726 0 24.943-5.061 33.941-14.059 8.998-8.998 14.059-21.215 14.059-33.941 0-12.726-5.061-24.943-14.059-33.941-8.998-8.998-21.215-14.059-33.941-14.059z" fill="none" stroke="#00aeef" stroke-width="4"/><path d="M11317.892 73.32c-.143-.442-.423-.827-.799-1.1-.376-.273-.828-.42-1.293-.42-.465 0-.917.147-1.293.42-.376.273-.656.658-.799 1.1-.144.442-.144.918 0 1.36.143.442.423.827.799 1.1.376.273.828.42 1.293.42.465 0 .917-.147 1.293-.42.376-.273.656-.658.799-1.1.144-.442.144-.918 0-1.36" fill="#139dd9"/></g><g><path d="M11469 7.3c-.477 0-.935.19-1.273.527-.337.338-.527.796-.527 1.273 0 .477.19.935.527 1.273.338.337.796.527 1.273.527.38 0 .751-.12 1.058-.344.307-.223.536-.538.654-.9.117-.361.117-.751 0-1.112-.118-.362-.347-.677-.654-.9-.307-.224-.678-.344-1.058-.344z" fill="#139dd9"/><path d="M11469 9.1c-12.726 0-24.943 5.061-33.941 14.059-8.998 8.998-14.059 21.215-14.059 33.941 0 12.726 5.061 24.943 14.059 33.941 8.998 8.998 21.215 14.059 33.941 14.059 12.726 0 24.943-5.061 33.941-14.059 8.998-8.998 14.059-21.215 14.059-33.941 0-12.726-5.061-24.943-14.059-33.941-8.998-8.998-21.215-14.059-33.941-14.059z" fill="none" stroke="#00aeef" stroke-width="4"/><path d="M11430.892 73.32c-.143-.442-.423-.827-.799-1.1-.376-.273-.828-.42-1.293-.42-.465 0-.917.147-1.293.42-.376.273-.656.658-.799 1.1-.144.442-.144.918 0 1.36.143.442.423.827.799 1.1.376.273.828.42 1.293.42.465 0 .917-.147 1.293-.42.376-.273.656-.658.799-1.1.144-.442.144-.918 0-1.36" fill="#139dd9"/></g><g><path d="M11582 7.3c-.477 0-.935.19-1.273.527-.337.338-.527.796-.527 1.273 0 .477.19.935.527 1.273.338.337.796.527 1.273.527.38 0 .751-.12 1.058-.344.307-.223.536-.538.654-.9.117-.361.117-.751 0-1.112-.118-.362-.347-.677-.654-.9-.307-.224-.678-.344-1.058-.344z" fill="#139dd9"/><path d="M11582 9.1c-12.726 0-24.943 5.061-33.941 14.059-8.998 8.998-14.059 21.215-14.059 33.941 0 12.726 5.061 24.943 14.059 33.941 8.998 8.998 21.215 14.059 33.941 14.059 12.726 0 24.943-5.061 33.941-14.059 8.998-8.998 14.059-21.215 14.059-33.941 0-12.726-5.061-24.943-14.059-33.941-8.998-8.998-21.215-14.059-33.941-14.059z" fill="none" stroke="#00aeef" stroke-width="4"/><path d="M11543.892 73.32c-.143-.442-.423-.827-.799-1.1-.376-.273-.828-.42-1.293-.42-.465 0-.917.147-1.293.42-.376.273-.656.658-.799 1.1-.144.442-.144.918 0 1.36.143.442.423.827.799 1.1.376.273.828.42 1.293.42.465 0 .917-.147 1.293-.42.376-.273.656-.658.799-1.1.144-.442.144-.918 0-1.36" fill="#139dd9"/></g><g><path d="M11695 7.3c-.477 0-.935.19-1.273.527-.337.338-.527.796-.527 1.273 0 .477.19.935.527 1.273.338.337.796.527 1.273.527.38 0 .751-.12 1.058-.344.307-.223.536-.538.654-.9.117-.361.117-.751 0-1.112-.118-.362-.347-.677-.654-.9-.307-.224-.678-.344-1.058-.344z" fill="#139dd9"/><path d="M11695 9.1c-12.726 0-24.943 5.061-33.941 14.059-8.998 8.998-14.059 21.215-14.059 33.941 0 12.726 5.061 24.943 14.059 33.941 8.998 8.998 21.215 14.059 33.941 14.059 12.726 0 24.943-5.061 33.941-14.059 8.998-8.998 14.059-21.215 14.059-33.941 0-12.726-5.061-24.943-14.059-33.941-8.998-8.998-21.215-14.059-33.941-14.059z" fill="none" stroke="#00aeef" stroke-width="4"/><path d="M11656.892 73.32c-.143-.442-.423-.827-.799-1.1-.376-.273-.828-.42-1.293-.42-.465 0-.917.147-1.293.42-.376.273-.656.658-.799 1.1-.144.442-.144.918 0 1.36.143.442.423.827.799 1.1.376.273.828.42 1.293.42.465 0 .917-.147 1.293-.42.376-.273.656-.658.799-1.1.144-.442.144-.918 0-1.36" fill="#139dd9"/></g><g><path d="M11808 7.3c-.477 0-.935.19-1.273.527-.337.338-.527.796-.527 1.273 0 .477.19.935.527 1.273.338.337.796.527 1.273.527.38 0 .751-.12 1.058-.344.307-.223.536-.538.654-.9.117-.361.117-.751 0-1.112-.118-.362-.347-.677-.654-.9-.307-.224-.678-.344-1.058-.344z" fill="#139dd9"/><path d="M11808 9.1c-12.726 0-24.943 5.061-33.941 14.059-8.998 8.998-14.059 21.215-14.059 33.941 0 12.726 5.061 24.943 14.059 33.941 8.998 8.998 21.215 14.059 33.941 14.059 12.726 0 24.943-5.061 33.941-14.059 8.998-8.998 14.059-21.215 14.059-33.941 0-12.726-5.061-24.943-14.059-33.941-8.998-8.998-21.215-14.059-33.941-14.059z" fill="none" stroke="#00aeef" stroke-width="4"/><path d="M11769.892 73.32c-.143-.442-.423-.827-.799-1.1-.376-.273-.828-.42-1.293-.42-.465 0-.917.147-1.293.42-.376.273-.656.658-.799 1.1-.144.442-.144.918 0 1.36.143.442.423.827.799 1.1.376.273.828.42 1.293.42.465 0 .917-.147 1.293-.42.376-.273.656-.658.799-1.1.144-.442.144-.918 0-1.36" fill="#139dd9"/></g><g><path d="M11921 7.3c-.477 0-.935.19-1.273.527-.337.338-.527.796-.527 1.273 0 .477.19.935.527 1.273.338.337.796.527 1.273.527.38 0 .751-.12 1.058-.344.307-.223.536-.538.654-.9.117-.361.117-.751 0-1.112-.118-.362-.347-.677-.654-.9-.307-.224-.678-.344-1.058-.344z" fill="#139dd9"/><path d="M11921 9.1c-12.726 0-24.943 5.061-33.941 14.059-8.998 8.998-14.059 21.215-14.059 33.941 0 12.726 5.061 24.943 14.059 33.941 8.998 8.998 21.215 14.059 33.941 14.059 12.726 0 24.943-5.061 33.941-14.059 8.998-8.998 14.059-21.215 14.059-33.941 0-12.726-5.061-24.943-14.059-33.941-8.998-8.998-21.215-14.059-33.941-14.059z" fill="none" stroke="#00aeef" stroke-width="4"/><path d="M11882.892 73.32c-.143-.442-.423-.827-.799-1.1-.376-.273-.828-.42-1.293-.42-.465 0-.917.147-1.293.42-.376.273-.656.658-.799 1.1-.144.442-.144.918 0 1.36.143.442.423.827.799 1.1.376.273.828.42 1.293.42.465 0 .917-.147 1.293-.42.376-.273.656-.658.799-1.1.144-.442.144-.918 0-1.36" fill="#139dd9"/></g><g><path d="M12034 7.3c-.477 0-.935.19-1.273.527-.337.338-.527.796-.527 1.273 0 .477.19.935.527 1.273.338.337.796.527 1.273.527.38 0 .751-.12 1.058-.344.307-.223.536-.538.654-.9.117-.361.117-.751 0-1.112-.118-.362-.347-.677-.654-.9-.307-.224-.678-.344-1.058-.344z" fill="#139dd9"/><path d="M12034 9.1c-12.726 0-24.943 5.061-33.941 14.059-8.998 8.998-14.059 21.215-14.059 33.941 0 12.726 5.061 24.943 14.059 33.941 8.998 8.998 21.215 14.059 33.941 14.059 12.726 0 24.943-5.061 33.941-14.059 8.998-8.998 14.059-21.215 14.059-33.941 0-12.726-5.061-24.943-14.059-33.941-8.998-8.998-21.215-14.059-33.941-14.059z" fill="none" stroke="#00aeef" stroke-width="4"/><path d="M11995.892 73.32c-.143-.442-.423-.827-.799-1.1-.376-.273-.828-.42-1.293-.42-.465 0-.917.147-1.293.42-.376.273-.656.658-.799 1.1-.144.442-.144.918 0 1.36.143.442.423.827.799 1.1.376.273.828.42 1.293.42.465 0 .917-.147 1.293-.42.376-.273.656-.658.799-1.1.144-.442.144-.918 0-1.36" fill="#139dd9"/></g><g><path d="M12147 7.3c-.477 0-.935.19-1.273.527-.337.338-.527.796-.527 1.273 0 .477.19.935.527 1.273.338.337.796.527 1.273.527.38 0 .751-.12 1.058-.344.307-.223.536-.538.654-.9.117-.361.117-.751 0-1.112-.118-.362-.347-.677-.654-.9-.307-.224-.678-.344-1.058-.344z" fill="#139dd9"/><path d="M12147 9.1c-12.726 0-24.943 5.061-33.941 14.059-8.998 8.998-14.059 21.215-14.059 33.941 0 12.726 5.061 24.943 14.059 33.941 8.998 8.998 21.215 14.059 33.941 14.059 12.726 0 24.943-5.061 33.941-14.059 8.998-8.998 14.059-21.215 14.059-33.941 0-12.726-5.061-24.943-14.059-33.941-8.998-8.998-21.215-14.059-33.941-14.059z" fill="none" stroke="#00aeef" stroke-width="4"/><path d="M12108.892 73.32c-.143-.442-.423-.827-.799-1.1-.376-.273-.828-.42-1.293-.42-.465 0-.917.147-1.293.42-.376.273-.656.658-.799 1.1-.144.442-.144.918 0 1.36.143.442.423.827.799 1.1.376.273.828.42 1.293.42.465 0 .917-.147 1.293-.42.376-.273.656-.658.799-1.1.144-.442.144-.918 0-1.36" fill="#139dd9"/></g><g><path d="M12260 7.3c-.477 0-.935.19-1.273.527-.337.338-.527.796-.527 1.273 0 .477.19.935.527 1.273.338.337.796.527 1.273.527.38 0 .751-.12 1.058-.344.307-.223.536-.538.654-.9.117-.361.117-.751 0-1.112-.118-.362-.347-.677-.654-.9-.307-.224-.678-.344-1.058-.344z" fill="#139dd9"/><path d="M12260 9.1c-12.726 0-24.943 5.061-33.941 14.059-8.998 8.998-14.059 21.215-14.059 33.941 0 12.726 5.061 24.943 14.059 33.941 8.998 8.998 21.215 14.059 33.941 14.059 12.726 0 24.943-5.061 33.941-14.059 8.998-8.998 14.059-21.215 14.059-33.941 0-12.726-5.061-24.943-14.059-33.941-8.998-8.998-21.215-14.059-33.941-14.059z" fill="none" stroke="#00aeef" stroke-width="4"/><path d="M12221.892 73.32c-.143-.442-.423-.827-.799-1.1-.376-.273-.828-.42-1.293-.42-.465 0-.917.147-1.293.42-.376.273-.656.658-.799 1.1-.144.442-.144.918 0 1.36.143.442.423.827.799 1.1.376.273.828.42 1.293.42.465 0 .917-.147 1.293-.42.376-.273.656-.658.799-1.1.144-.442.144-.918 0-1.36" fill="#139dd9"/></g><g><path d="M12373 7.3c-.477 0-.935.19-1.273.527-.337.338-.527.796-.527 1.273 0 .477.19.935.527 1.273.338.337.796.527 1.273.527.38 0 .751-.12 1.058-.344.307-.223.536-.538.654-.9.117-.361.117-.751 0-1.112-.118-.362-.347-.677-.654-.9-.307-.224-.678-.344-1.058-.344z" fill="#139dd9"/><path d="M12373 9.1c-12.726 0-24.943 5.061-33.941 14.059-8.998 8.998-14.059 21.215-14.059 33.941 0 12.726 5.061 24.943 14.059 33.941 8.998 8.998 21.215 14.059 33.941 14.059 12.726 0 24.943-5.061 33.941-14.059 8.998-8.998 14.059-21.215 14.059-33.941 0-12.726-5.061-24.943-14.059-33.941-8.998-8.998-21.215-14.059-33.941-14.059z" fill="none" stroke="#00aeef" stroke-width="4"/><path d="M12334.892 73.32c-.143-.442-.423-.827-.799-1.1-.376-.273-.828-.42-1.293-.42-.465 0-.917.147-1.293.42-.376.273-.656.658-.799 1.1-.144.442-.144.918 0 1.36.143.442.423.827.799 1.1.376.273.828.42 1.293.42.465 0 .917-.147 1.293-.42.376-.273.656-.658.799-1.1.144-.442.144-.918 0-1.36" fill="#139dd9"/></g><g><path d="M12486 7.3c-.477 0-.935.19-1.273.527-.337.338-.527.796-.527 1.273 0 .477.19.935.527 1.273.338.337.796.527 1.273.527.38 0 .751-.12 1.058-.344.307-.223.536-.538.654-.9.117-.361.117-.751 0-1.112-.118-.362-.347-.677-.654-.9-.307-.224-.678-.344-1.058-.344z" fill="#139dd9"/><path d="M12486 9.1c-12.726 0-24.943 5.061-33.941 14.059-8.998 8.998-14.059 21.215-14.059 33.941 0 12.726 5.061 24.943 14.059 33.941 8.998 8.998 21.215 14.059 33.941 14.059 12.726 0 24.943-5.061 33.941-14.059 8.998-8.998 14.059-21.215 14.059-33.941 0-12.726-5.061-24.943-14.059-33.941-8.998-8.998-21.215-14.059-33.941-14.059z" fill="none" stroke="#00aeef" stroke-width="4"/><path d="M12447.892 73.32c-.143-.442-.423-.827-.799-1.1-.376-.273-.828-.42-1.293-.42-.465 0-.917.147-1.293.42-.376.273-.656.658-.799 1.1-.144.442-.144.918 0 1.36.143.442.423.827.799 1.1.376.273.828.42 1.293.42.465 0 .917-.147 1.293-.42.376-.273.656-.658.799-1.1.144-.442.144-.918 0-1.36" fill="#139dd9"/></g><g><path d="M12599 7.3c-.477 0-.935.19-1.273.527-.337.338-.527.796-.527 1.273 0 .477.19.935.527 1.273.338.337.796.527 1.273.527.38 0 .751-.12 1.058-.344.307-.223.536-.538.654-.9.117-.361.117-.751 0-1.112-.118-.362-.347-.677-.654-.9-.307-.224-.678-.344-1.058-.344z" fill="#139dd9"/><path d="M12599 9.1c-12.726 0-24.943 5.061-33.941 14.059-8.998 8.998-14.059 21.215-14.059 33.941 0 12.726 5.061 24.943 14.059 33.941 8.998 8.998 21.215 14.059 33.941 14.059 12.726 0 24.943-5.061 33.941-14.059 8.998-8.998 14.059-21.215 14.059-33.941 0-12.726-5.061-24.943-14.059-33.941-8.998-8.998-21.215-14.059-33.941-14.059z" fill="none" stroke="#00aeef" stroke-width="4"/><path d="M12560.892 73.32c-.143-.442-.423-.827-.799-1.1-.376-.273-.828-.42-1.293-.42-.465 0-.917.147-1.293.42-.376.273-.656.658-.799 1.1-.144.442-.144.918 0 1.36.143.442.423.827.799 1.1.376.273.828.42 1.293.42.465 0 .917-.147 1.293-.42.376-.273.656-.658.799-1.1.144-.442.144-.918 0-1.36" fill="#139dd9"/></g><g><path d="M12712 7.3c-.477 0-.935.19-1.273.527-.337.338-.527.796-.527 1.273 0 .477.19.935.527 1.273.338.337.796.527 1.273.527.38 0 .751-.12 1.058-.344.307-.223.536-.538.654-.9.117-.361.117-.751 0-1.112-.118-.362-.347-.677-.654-.9-.307-.224-.678-.344-1.058-.344z" fill="#139dd9"/><path d="M12712 9.1c-12.726 0-24.943 5.061-33.941 14.059-8.998 8.998-14.059 21.215-14.059 33.941 0 12.726 5.061 24.943 14.059 33.941 8.998 8.998 21.215 14.059 33.941 14.059 12.726 0 24.943-5.061 33.941-14.059 8.998-8.998 14.059-21.215 14.059-33.941 0-12.726-5.061-24.943-14.059-33.941-8.998-8.998-21.215-14.059-33.941-14.059z" fill="none" stroke="#00aeef" stroke-width="4"/><path d="M12673.892 73.32c-.143-.442-.423-.827-.799-1.1-.376-.273-.828-.42-1.293-.42-.465 0-.917.147-1.293.42-.376.273-.656.658-.799 1.1-.144.442-.144.918 0 1.36.143.442.423.827.799 1.1.376.273.828.42 1.293.42.465 0 .917-.147 1.293-.42.376-.273.656-.658.799-1.1.144-.442.144-.918 0-1.36" fill="#139dd9"/></g><g><path d="M12825 7.3c-.477 0-.935.19-1.273.527-.337.338-.527.796-.527 1.273 0 .477.19.935.527 1.273.338.337.796.527 1.273.527.38 0 .751-.12 1.058-.344.307-.223.536-.538.654-.9.117-.361.117-.751 0-1.112-.118-.362-.347-.677-.654-.9-.307-.224-.678-.344-1.058-.344z" fill="#139dd9"/><path d="M12825 9.1c-12.726 0-24.943 5.061-33.941 14.059-8.998 8.998-14.059 21.215-14.059 33.941 0 12.726 5.061 24.943 14.059 33.941 8.998 8.998 21.215 14.059 33.941 14.059 12.726 0 24.943-5.061 33.941-14.059 8.998-8.998 14.059-21.215 14.059-33.941 0-12.726-5.061-24.943-14.059-33.941-8.998-8.998-21.215-14.059-33.941-14.059z" fill="none" stroke="#00aeef" stroke-width="4"/><path d="M12786.892 73.32c-.143-.442-.423-.827-.799-1.1-.376-.273-.828-.42-1.293-.42-.465 0-.917.147-1.293.42-.376.273-.656.658-.799 1.1-.144.442-.144.918 0 1.36.143.442.423.827.799 1.1.376.273.828.42 1.293.42.465 0 .917-.147 1.293-.42.376-.273.656-.658.799-1.1.144-.442.144-.918 0-1.36" fill="#139dd9"/></g><g><path d="M12938 7.3c-.477 0-.935.19-1.273.527-.337.338-.527.796-.527 1.273 0 .477.19.935.527 1.273.338.337.796.527 1.273.527.38 0 .751-.12 1.058-.344.307-.223.536-.538.654-.9.117-.361.117-.751 0-1.112-.118-.362-.347-.677-.654-.9-.307-.224-.678-.344-1.058-.344z" fill="#139dd9"/><path d="M12938 9.1c-12.726 0-24.943 5.061-33.941 14.059-8.998 8.998-14.059 21.215-14.059 33.941 0 12.726 5.061 24.943 14.059 33.941 8.998 8.998 21.215 14.059 33.941 14.059 12.726 0 24.943-5.061 33.941-14.059 8.998-8.998 14.059-21.215 14.059-33.941 0-12.726-5.061-24.943-14.059-33.941-8.998-8.998-21.215-14.059-33.941-14.059z" fill="none" stroke="#00aeef" stroke-width="4"/><path d="M12975.9 77.5c-11.6-6.8-27.7-5-37.3.5-3.5 2.1-6 4.7-9.4 6-9.9 3.8-21.4.2-27-5-1.8-1.6-2.6-3.9-4.4-5 7.2 14.5 21.7 27.2 42 26 17.6-.9 29.5-10.5 36.1-22.5" fill="#139dd9"/></g><g><path d="M13051 7.3c-.477 0-.935.19-1.273.527-.337.338-.527.796-.527 1.273 0 .477.19.935.527 1.273.338.337.796.527 1.273.527.38 0 .751-.12 1.058-.344.307-.223.536-.538.654-.9.117-.361.117-.751 0-1.112-.118-.362-.347-.677-.654-.9-.307-.224-.678-.344-1.058-.344z" fill="#139dd9"/><path d="M13051 9.1c-12.726 0-24.943 5.061-33.941 14.059-8.998 8.998-14.059 21.215-14.059 33.941 0 12.726 5.061 24.943 14.059 33.941 8.998 8.998 21.215 14.059 33.941 14.059 12.726 0 24.943-5.061 33.941-14.059 8.998-8.998 14.059-21.215 14.059-33.941 0-12.726-5.061-24.943-14.059-33.941-8.998-8.998-21.215-14.059-33.941-14.059z" fill="none" stroke="#00aeef" stroke-width="4"/><path d="M13088.9 77.5c-11.6-6.8-27.7-5-37.3.5-3.5 2.1-6 4.7-9.4 6-9.9 3.8-21.4.2-27-5-1.8-1.6-2.6-3.9-4.4-5 7.2 14.5 21.7 27.2 42 26 17.6-.9 29.5-10.5 36.1-22.5" fill="#139dd9"/></g><g><path d="M13164 7.3c-.477 0-.935.19-1.273.527-.337.338-.527.796-.527 1.273 0 .477.19.935.527 1.273.338.337.796.527 1.273.527.38 0 .751-.12 1.058-.344.307-.223.536-.538.654-.9.117-.361.117-.751 0-1.112-.118-.362-.347-.677-.654-.9-.307-.224-.678-.344-1.058-.344z" fill="#139dd9"/><path d="M13164 9.1c-12.726 0-24.943 5.061-33.941 14.059-8.998 8.998-14.059 21.215-14.059 33.941 0 12.726 5.061 24.943 14.059 33.941 8.998 8.998 21.215 14.059 33.941 14.059 12.726 0 24.943-5.061 33.941-14.059 8.998-8.998 14.059-21.215 14.059-33.941 0-12.726-5.061-24.943-14.059-33.941-8.998-8.998-21.215-14.059-33.941-14.059z" fill="none" stroke="#00aeef" stroke-width="4"/><path d="M13201.9 77.5c-11.6-6.8-27.7-5-37.3.5-3.5 2.1-6 4.7-9.4 6-9.9 3.8-21.4.2-27-5-1.8-1.6-2.6-3.9-4.4-5 7.2 14.5 21.7 27.2 42 26 17.6-.9 29.5-10.5 36.1-22.5" fill="#139dd9"/></g><g><path d="M13277 7.3c-.477 0-.935.19-1.273.527-.337.338-.527.796-.527 1.273 0 .477.19.935.527 1.273.338.337.796.527 1.273.527.38 0 .751-.12 1.058-.344.307-.223.536-.538.654-.9.117-.361.117-.751 0-1.112-.118-.362-.347-.677-.654-.9-.307-.224-.678-.344-1.058-.344z" fill="#139dd9"/><path d="M13277 9.1c-12.726 0-24.943 5.061-33.941 14.059-8.998 8.998-14.059 21.215-14.059 33.941 0 12.726 5.061 24.943 14.059 33.941 8.998 8.998 21.215 14.059 33.941 14.059 12.726 0 24.943-5.061 33.941-14.059 8.998-8.998 14.059-21.215 14.059-33.941 0-12.726-5.061-24.943-14.059-33.941-8.998-8.998-21.215-14.059-33.941-14.059z" fill="none" stroke="#00aeef" stroke-width="4"/><path d="M13314.9 77.5c-11.6-6.8-27.7-5-37.3.5-3.5 2.1-6 4.7-9.4 6-9.9 3.8-21.4.2-27-5-1.8-1.6-2.6-3.9-4.4-5 7.2 14.5 21.7 27.2 42 26 17.6-.9 29.5-10.5 36.1-22.5" fill="#139dd9"/></g><g><path d="M13390 7.3c-.477 0-.935.19-1.273.527-.337.338-.527.796-.527 1.273 0 .477.19.935.527 1.273.338.337.796.527 1.273.527.38 0 .751-.12 1.058-.344.307-.223.536-.538.654-.9.117-.361.117-.751 0-1.112-.118-.362-.347-.677-.654-.9-.307-.224-.678-.344-1.058-.344z" fill="#139dd9"/><path d="M13390 9.1c-12.726 0-24.943 5.061-33.941 14.059-8.998 8.998-14.059 21.215-14.059 33.941 0 12.726 5.061 24.943 14.059 33.941 8.998 8.998 21.215 14.059 33.941 14.059 12.726 0 24.943-5.061 33.941-14.059 8.998-8.998 14.059-21.215 14.059-33.941 0-12.726-5.061-24.943-14.059-33.941-8.998-8.998-21.215-14.059-33.941-14.059z" fill="none" stroke="#00aeef" stroke-width="4"/><path d="M13427.9 77.5c-11.6-6.8-27.7-5-37.3.5-3.5 2.1-6 4.7-9.4 6-9.9 3.8-21.4.2-27-5-1.8-1.6-2.6-3.9-4.4-5 7.2 14.5 21.7 27.2 42 26 17.6-.9 29.5-10.5 36.1-22.5" fill="#139dd9"/></g><g><path d="M13503 7.3c-.477 0-.935.19-1.273.527-.337.338-.527.796-.527 1.273 0 .477.19.935.527 1.273.338.337.796.527 1.273.527.38 0 .751-.12 1.058-.344.307-.223.536-.538.654-.9.117-.361.117-.751 0-1.112-.118-.362-.347-.677-.654-.9-.307-.224-.678-.344-1.058-.344z" fill="#139dd9"/><path d="M13503 9.1c-12.726 0-24.943 5.061-33.941 14.059-8.998 8.998-14.059 21.215-14.059 33.941 0 12.726 5.061 24.943 14.059 33.941 8.998 8.998 21.215 14.059 33.941 14.059 12.726 0 24.943-5.061 33.941-14.059 8.998-8.998 14.059-21.215 14.059-33.941 0-12.726-5.061-24.943-14.059-33.941-8.998-8.998-21.215-14.059-33.941-14.059z" fill="none" stroke="#00aeef" stroke-width="4"/><path d="M13540.9 77.5c-11.6-6.8-27.7-5-37.3.5-3.5 2.1-6 4.7-9.4 6-9.9 3.8-21.4.2-27-5-1.8-1.6-2.6-3.9-4.4-5 7.2 14.5 21.7 27.2 42 26 17.6-.9 29.5-10.5 36.1-22.5" fill="#139dd9"/></g><g><path d="M13616 7.3c-.477 0-.935.19-1.273.527-.337.338-.527.796-.527 1.273 0 .477.19.935.527 1.273.338.337.796.527 1.273.527.38 0 .751-.12 1.058-.344.307-.223.536-.538.654-.9.117-.361.117-.751 0-1.112-.118-.362-.347-.677-.654-.9-.307-.224-.678-.344-1.058-.344z" fill="#139dd9"/><path d="M13616 9.1c-12.726 0-24.943 5.061-33.941 14.059-8.998 8.998-14.059 21.215-14.059 33.941 0 12.726 5.061 24.943 14.059 33.941 8.998 8.998 21.215 14.059 33.941 14.059 12.726 0 24.943-5.061 33.941-14.059 8.998-8.998 14.059-21.215 14.059-33.941 0-12.726-5.061-24.943-14.059-33.941-8.998-8.998-21.215-14.059-33.941-14.059z" fill="none" stroke="#00aeef" stroke-width="4"/><path d="M13653.9 77.5c-11.6-6.8-27.7-5-37.3.5-3.5 2.1-6 4.7-9.4 6-9.9 3.8-21.4.2-27-5-1.8-1.6-2.6-3.9-4.4-5 7.2 14.5 21.7 27.2 42 26 17.6-.9 29.5-10.5 36.1-22.5" fill="#139dd9"/></g></svg>